<svg width="645" height="237" viewBox="0 0 645 237" fill="none" xmlns="http://www.w3.org/2000/svg">
<g clip-path="url(#clip0_22_420)">
<path d="M18.7886 41.4698V44.9927H11.3906L11.3906 67.7738H7.28057L7.28057 44.934H0L0 41.4111H18.7886V41.4698Z" fill="#231815"/>
<path d="M23.6033 49.0439L27.3023 63.0179L31.471 49.0439H34.6416L38.7516 63.0179L42.568 49.0439H46.5019L40.9827 67.9499H36.9901L32.9389 55.0915L29.1224 67.9499H25.1299L19.6694 49.0439H23.6033Z" fill="#231815"/>
<path d="M54.2521 41.4696V45.697H50.0247V41.4696H54.2521ZM54.0172 49.0437L54.0172 67.7736H50.2008L50.2008 49.0437H54.0172Z" fill="#231815"/>
<path d="M69.1065 49.0437L69.0478 52.0968H64.9378C64.8791 54.328 64.8204 60.1407 64.8204 60.5517V61.9021C64.8204 63.1938 64.8791 63.7222 65.1727 64.1332C65.4662 64.4855 66.0534 64.7791 66.758 64.7791C67.6387 64.7791 68.5781 64.5442 69.5762 64.1332L69.5175 67.3625C68.1084 67.891 67.0515 68.1258 65.7598 68.1258C63.7635 68.1258 62.237 67.4212 61.4737 66.1295C61.004 65.3662 60.8278 64.4855 60.8278 62.9002C60.8278 62.2544 60.8865 61.9608 60.8865 60.4342L61.1214 52.1555H58.2444L58.3031 49.1024H61.1801L61.2975 43.7007H65.0552L64.9378 49.1024H69.1065V49.0437Z" fill="#231815"/>
<path d="M82.7286 49.0437L82.6699 52.0968H78.5599C78.5012 54.328 78.4425 60.1407 78.4425 60.5517V61.9021C78.4425 63.1938 78.5012 63.7222 78.7947 64.1332C79.0883 64.4855 79.6755 64.7791 80.38 64.7791C81.2607 64.7791 82.2002 64.5442 83.1983 64.1332L83.1396 67.3625C81.7305 67.891 80.6736 68.1258 79.3819 68.1258C77.3856 68.1258 75.859 67.4212 75.0957 66.1295C74.626 65.3662 74.4499 64.4855 74.4499 62.9002C74.4499 62.2544 74.5086 61.9608 74.5086 60.4342L74.7435 52.1555H71.8665L71.9252 49.1024H74.8022L74.9196 43.7007H78.6773L78.5599 49.1024H82.7286V49.0437Z" fill="#231815"/>
<path d="M89.9502 59.2014C90.1264 63.0765 91.8291 65.0728 95.0583 65.0728C97.0546 65.0728 98.2289 64.3095 99.0509 62.4894H102.574C101.693 66.1297 98.9335 68.2434 94.9409 68.2434C89.4805 68.2434 86.0164 64.4857 86.0164 58.6142C86.0164 52.508 89.4218 48.5154 94.6474 48.5154C99.5793 48.5154 102.75 52.3318 102.75 58.3794V59.2014H89.9502ZM98.8161 56.3244C98.4638 53.2125 96.9959 51.5685 94.5886 51.5685C92.1814 51.5685 90.6548 53.1538 90.0676 56.3244H98.8161Z" fill="#231815"/>
<path d="M110.852 49.0438C111.028 49.9245 111.146 50.9227 111.146 51.8034V52.6254C112.555 49.8071 114.023 48.6328 116.195 48.6328C116.9 48.6328 117.604 48.7502 118.25 48.9851V52.919C117.37 52.3905 116.548 52.097 115.667 52.097C112.907 52.097 111.322 54.7978 111.322 59.4362V67.7737H107.388V55.0914C107.388 50.8052 107.329 50.5704 107.153 48.9851H110.852V49.0438Z" fill="#231815"/>
<path d="M128.819 59.495C128.819 57.0877 128.819 56.618 128.878 55.8547C128.995 54.2694 129.582 53.2713 131.52 51.275C133.516 49.22 133.927 48.4567 133.927 47.165C133.927 45.5797 132.812 44.5229 131.168 44.5229C129.348 44.5229 128.467 45.6384 128.291 48.2219H124.063C124.122 45.8146 124.533 44.4641 125.59 43.2899C126.882 41.7633 128.995 41 131.579 41C135.689 41 138.213 43.2899 138.213 46.9889C138.213 49.1613 137.626 50.2181 134.867 53.0951C132.812 55.2676 132.577 55.7373 132.577 58.262C132.577 58.673 132.577 58.9666 132.636 59.5537H128.819V59.495ZM133.047 63.0766V67.715H128.408V63.0766H133.047Z" fill="#231815"/>
<path d="M167.218 41.4696C170.741 41.4696 172.561 41.7632 173.97 42.7026C175.614 43.7007 176.554 45.4622 176.554 47.752C176.554 50.9226 175.086 52.8602 171.974 53.8583C175.967 54.7977 177.904 57.0289 177.904 60.6105C177.904 63.3113 176.671 65.5425 174.499 66.7167C173.031 67.5387 171.211 67.7736 167.805 67.7736H160.172V41.4696H167.218ZM168.04 52.3905C171.035 52.3905 172.561 50.9813 172.561 48.2217C172.561 45.7557 171.269 44.8163 167.981 44.8163H164.282V52.3905H168.04ZM168.275 64.3682C170.624 64.3682 171.915 64.0746 172.62 63.4287C173.383 62.7242 173.735 61.6673 173.735 60.2582C173.735 57.0876 172.033 55.6785 168.334 55.6785H164.224V64.3682H168.275Z" fill="#231815"/>
<path d="M186.418 63.194C186.418 64.4857 186.711 64.7206 188.003 64.7206C188.707 64.7206 189.236 64.6619 189.999 64.4857V67.8911C188.531 68.126 188.003 68.126 187.005 68.126C185.419 68.126 184.245 67.8911 183.599 67.4214C182.836 66.8343 182.542 66.0123 182.542 64.2509V41.2936H186.418V63.194Z" fill="#231815"/>
<path d="M196.928 49.0438V60.0821C196.928 61.7261 197.162 62.8417 197.573 63.4875C198.161 64.3095 199.217 64.7792 200.392 64.7792C201.918 64.7792 203.151 64.0747 203.797 62.9004C204.267 62.0784 204.502 61.0215 204.502 59.3775V49.0438H208.377V63.6637C208.377 65.9535 208.436 66.482 208.847 67.7737H205.148C204.913 67.1278 204.795 66.482 204.795 65.4838C203.504 67.4214 202.036 68.2434 199.628 68.2434C197.162 68.2434 195.107 67.1865 193.992 65.4251C193.346 64.3682 193.052 62.783 193.052 60.317V49.1613H196.928V49.0438Z" fill="#231815"/>
<path d="M216.949 59.2014C217.125 63.0765 218.828 65.0728 222.057 65.0728C224.054 65.0728 225.228 64.3095 226.05 62.4894H229.573C228.692 66.1297 225.933 68.2434 221.94 68.2434C216.48 68.2434 213.015 64.4857 213.015 58.6142C213.015 52.508 216.421 48.5154 221.646 48.5154C226.578 48.5154 229.749 52.3318 229.749 58.3794V59.2014H216.949ZM225.815 56.3244C225.463 53.2125 223.995 51.5685 221.588 51.5685C219.18 51.5685 217.654 53.1538 217.067 56.3244H225.815Z" fill="#231815"/>
<path d="M244.252 54.4455C243.958 52.4492 242.901 51.5098 240.846 51.5098C239.026 51.5098 237.793 52.5079 237.793 53.8584C237.793 54.5042 238.087 55.0914 238.615 55.4437C239.143 55.7959 239.907 56.0895 242.255 56.7354C245.132 57.5574 246.365 58.1445 247.07 59.0252C247.774 59.8472 248.185 61.0215 248.185 62.2545C248.185 65.9535 245.485 68.1847 240.964 68.1847C236.032 68.1847 233.272 65.8948 233.272 61.7261V61.6087H236.912C237.03 62.8417 237.206 63.3701 237.734 63.8985C238.38 64.6618 239.554 65.0728 240.905 65.0728C243.019 65.0728 244.31 64.0747 244.31 62.4307C244.31 61.6087 243.958 61.1389 243.077 60.6692C242.431 60.3757 242.02 60.1995 238.967 59.2601C236.912 58.6142 235.855 58.0858 235.151 57.3225C234.329 56.5005 233.918 55.3262 233.918 54.0345C233.918 50.6291 236.736 48.3392 240.964 48.3392C245.25 48.3392 247.774 50.5117 248.009 54.2694H244.252V54.4455Z" fill="#231815"/>
<path d="M264.214 49.044H268.911L261.102 57.6163L269.557 67.7738H264.273L256.934 58.2621V67.7738H253.059V41.3524H256.934V57.2053L264.214 49.044Z" fill="#231815"/>
<path d="M275.429 49.0437L280.008 63.8984L284.764 49.0437H288.757L282.533 66.8341C280.83 71.6487 280.361 72.5881 278.775 73.8798C277.366 74.9954 275.429 75.5825 273.021 75.5825C272.728 75.5825 272.317 75.5825 271.73 75.5238V72.1184H272.375C275.605 72.1184 276.72 71.3551 277.895 68.1845L271.319 48.9263H275.429V49.0437Z" fill="#231815"/>
<path d="M295.92 59.495C295.92 57.0877 295.92 56.618 295.979 55.8547C296.096 54.2694 296.683 53.2713 298.621 51.275C300.617 49.22 301.028 48.4567 301.028 47.165C301.028 45.5797 299.912 44.5229 298.268 44.5229C296.448 44.5229 295.568 45.6384 295.391 48.2219H291.164C291.223 45.8146 291.634 44.4641 292.691 43.2899C293.982 41.7633 296.096 41 298.679 41C302.789 41 305.314 43.2899 305.314 46.9889C305.314 49.1613 304.727 50.2181 301.967 53.0951C299.912 55.2676 299.678 55.7373 299.678 58.262C299.678 58.673 299.678 58.9666 299.736 59.5537H295.92V59.495ZM300.147 63.0766V67.715H295.509V63.0766H300.147Z" fill="#231815"/>
<path d="M360.909 6.49341V102.229L340.279 102.229V99.0863H336.088V106.903H314.491V6.49341L360.909 6.49341ZM340.279 27.5263H336.088V40.9035L340.279 40.9035V27.5263ZM336.088 63.0645V77.8117H340.279V63.0645L336.088 63.0645ZM425.296 61.1304H433.113V81.9215H425.296V103.518C425.296 109.643 424.088 114.8 418.124 117.621C412.725 120.2 404.425 120.522 397.172 120.522H391.048C390.886 114.398 390.161 109.401 387.744 103.68C384.842 105.211 380.571 108.031 377.187 110.207C374.044 103.277 368.322 95.057 363.084 89.416L375.495 82.0021H364.696V61.211L400.234 61.211V56.6177L363.004 56.6177V35.9877L385.729 35.9877V30.7497L365.582 30.7497V10.3615L385.729 10.3615V-0.19519L412 0.207738C413.209 0.207738 414.095 1.0136 414.095 2.30297C414.095 3.51175 412.644 4.55936 410.791 5.28463V10.3615L431.985 10.3615V30.6691L410.791 30.6691V35.9072L434.483 35.9072V56.5371H425.216V61.1304H425.296ZM397.817 97.6357C400.154 97.6357 400.315 96.1852 400.315 94.2511V81.9215H383.714C387.744 86.9178 391.531 91.9947 394.674 97.4746C396.124 97.6357 396.769 97.6357 397.817 97.6357Z" fill="#231815"/>
<path d="M472.761 33.8121L489.926 31.9587C489.442 25.4312 489.281 18.0979 489.12 -1.16203L516.036 0.288514C517.325 0.449685 518.937 0.691442 518.937 2.14198C518.937 3.43135 517.486 4.23721 514.907 5.44599C514.907 13.424 514.907 21.4019 515.149 29.3799L526.915 28.0906C523.772 21.4019 519.984 14.391 515.633 8.50824L533.039 -1.80671C538.68 5.28482 543.757 12.9405 548.109 20.8378C545.53 22.1272 544.079 22.9331 537.391 26.9624L552.702 25.4312L554.555 49.1234L517.567 53.1527C519.259 63.6288 521.596 71.2039 525.948 80.8741C526.995 83.2111 530.38 89.255 533.281 89.255C536.021 89.255 537.068 79.8265 537.632 74.1855C541.662 80.0683 549.962 88.6909 556.57 91.4308C555.684 97.9583 553.266 106.5 550.446 112.383C547.545 118.024 543.273 120.764 536.988 120.764C524.336 120.764 513.215 107.951 507.01 98.0389C499.193 85.3869 495.244 70.5592 492.907 55.9732L474.856 57.9072L473.325 38.4055C472.842 38.6473 472.116 38.889 471.069 39.2114V121.328H445.684V66.6911C444.476 67.9804 443.347 69.1892 442.058 70.3174C434.644 57.2625 433.838 55.9732 428.439 49.3652C435.53 41.7901 441.816 33.248 446.893 24.1419C450.519 17.6144 456.966 4.64014 457.772 -2.53198L483.801 6.09068C485.01 6.4936 485.494 7.13829 485.494 8.34708C485.494 9.8782 484.043 10.4423 480.82 11.087C477.838 18.5009 474.05 26.8012 469.941 33.7315L472.922 34.5374V33.8121H472.761Z" fill="#231815"/>
<path d="M578.328 31.7974C579.054 32.0392 579.698 32.4421 579.698 33.0062C579.698 34.3761 578.167 34.6179 576.797 34.7791C573.251 47.2698 570.673 61.2112 570.673 74.1855C570.673 77.8924 570.914 80.7129 571.398 84.4198C572.929 82.0023 574.702 79.4235 576.233 77.1671C578.167 80.9546 580.665 84.0975 583.566 87.3209C578.57 94.8154 574.944 103.277 575.105 112.383L561.405 114.962C557.618 101.585 555.845 87.6432 555.845 73.6213C555.845 58.3907 557.86 41.6289 561.969 26.8817L578.328 31.7974ZM608.87 26.4788L626.841 29.541C627.566 29.6216 628.211 29.9439 628.211 30.6692C628.211 31.878 626.76 32.2003 625.874 32.2809C625.39 36.3908 625.068 40.5007 624.826 44.5299C630.225 43.4823 634.738 42.5153 639.976 40.7424V56.2149C634.899 57.4236 629.661 58.5518 624.423 59.5189C624.423 66.2075 624.907 76.603 626.035 83.0499C632.16 85.0645 640.863 89.0938 645.456 93.6066C643.2 97.7164 641.427 101.504 638.526 108.031C635.222 104.889 631.837 102.068 627.566 100.215C627.163 111.738 617.009 114.881 607.178 114.881C600.651 114.881 594.607 113.35 589.61 108.837C586.226 105.775 584.614 101.585 584.614 96.9912C584.614 84.7422 597.105 80.5517 607.42 80.5517H609.999C609.596 75.4748 609.112 66.9327 608.87 61.6141C605.002 61.9364 601.054 62.0976 597.105 62.0976C594.687 62.0976 592.109 62.017 589.53 61.7753V45.7387C594.365 46.3834 598.958 46.5446 603.229 46.5446C605.002 46.5446 606.533 46.5446 608.79 46.464C608.79 39.9366 608.79 33.1674 608.87 26.4788ZM605.727 93.0425C603.391 93.0425 598.555 93.7678 598.555 96.9106C598.555 99.9728 602.826 100.698 605.244 100.698C609.112 100.698 612.094 99.2476 612.094 95.6212C612.094 95.2183 612.094 94.896 612.013 94.2513C609.918 93.4454 607.984 93.0425 605.727 93.0425Z" fill="#231815"/>
<path d="M157.124 169.71L158.172 232.889H129L129 125.71H158.172L200.963 188.889L199.915 125.71H229.087V232.969H199.915L157.124 169.71Z" fill="#231815"/>
<path d="M275.45 151.82C301.076 151.82 317.919 167.937 317.919 193.805C317.919 219.673 301.076 235.79 275.45 235.79C249.663 235.79 232.82 219.834 232.82 193.805C232.82 167.937 249.663 151.82 275.45 151.82ZM275.45 171.966C262.798 171.966 260.381 184.618 260.381 194.691C260.381 204.362 263.765 215.644 275.45 215.644C287.457 215.644 290.52 203.717 290.52 193.805C290.439 183.973 287.457 171.966 275.45 171.966Z" fill="#231815"/>
<path d="M348.032 208.229C348.435 215.966 352.464 217.9 359.797 217.9C363.585 217.9 369.709 217.255 369.709 212.178C369.709 207.504 366.566 206.779 352.464 203.394C345.131 201.541 335.863 198.72 329.819 194.127C324.42 189.937 323.05 184.698 323.05 178.171C323.05 157.622 341.343 151.9 358.588 151.9C368.5 151.9 381.314 154.237 388.647 161.57C392.837 165.761 394.288 170.596 394.933 176.318H367.856C367.695 173.578 367.05 169.79 358.347 169.79C354.801 169.79 349.321 170.596 349.321 175.028C349.321 179.46 354.962 180.669 367.856 183.651C374.786 185.182 384.295 188.325 390.339 192.838C395.416 196.464 397.27 202.669 397.27 208.632C397.27 215.321 394.771 221.284 390.097 226.039C382.119 233.775 369.145 235.87 358.427 235.87C347.951 235.87 335.299 233.533 327.724 225.958C322.728 220.881 321.197 215.079 320.391 208.31H348.032V208.229Z" fill="#231815"/>
<path d="M437.864 205.167C437.864 211.211 440.362 214.354 446.648 214.354H453.095V234.904C447.454 235.306 438.025 235.79 434.399 235.79C419.893 235.79 410.868 230.794 410.868 215.241V170.919H398.619V154.721H410.787V132.479H437.864V154.721H453.014V170.919H437.864V205.167Z" fill="#231815"/>
<path d="M483.004 169.71C484.858 163.424 487.195 158.347 493.319 155.204C497.993 152.706 503.795 151.82 509.033 151.82H516.608V179.944H507.744C502.667 179.944 497.832 180.347 493.239 183.248C486.953 187.036 485.1 195.417 485.1 202.347V232.969H458.829V154.801H482.601L483.004 169.71Z" fill="#231815"/>
<path d="M548.208 141.216L566.098 145.648C566.904 145.89 567.871 146.051 567.871 147.018C567.871 148.066 566.581 148.469 565.775 148.63C564.97 152.256 564.003 156.044 563.116 159.267C569.563 158.139 574.479 156.527 580.603 153.868L582.215 170.549C575.446 172.725 569.321 173.934 558.603 175.384C555.299 185.86 552.882 193.032 548.45 203.106C543.292 215.274 537.973 225.67 531.043 236.952C525.644 233.648 521.131 231.391 515.329 228.813C527.497 212.534 534.75 196.739 541.036 177.641C534.266 177.963 527.981 178.205 522.017 178.285L520.647 161.201C524.677 161.765 528.787 161.846 532.816 161.846C537.006 161.846 541.277 161.765 545.468 161.443C546.918 154.513 547.885 148.307 548.208 141.216ZM573.673 208.827C571.9 211.325 570.933 212.937 570.933 214.549C570.933 217.047 572.545 218.014 574.72 218.578C578.427 219.626 582.295 219.626 586.083 219.626C593.9 219.626 602.12 218.498 609.292 215.274C609.211 216.966 609.05 219.706 609.05 221.399C609.05 225.428 609.131 229.215 609.775 233.245C603.328 234.534 597.043 235.018 590.515 235.018C578.83 235.018 556.105 234.615 556.105 218.014C556.105 213.824 557.878 209.069 559.973 204.073L573.673 208.827ZM590.515 176.915C596.237 176.915 601.878 177.479 607.519 178.285C606.794 184.087 606.471 189.164 606.471 194.967C601.072 193.677 594.222 193.274 588.581 193.274C582.054 193.274 575.204 193.677 568.838 194.967V179.172C575.929 177.802 583.182 176.915 590.515 176.915ZM602.925 161.765C599.621 163.699 597.849 164.908 594.947 167.487C591.885 162.974 588.823 159.025 585.68 155.802L592.933 150.242C596.559 153.787 599.944 157.655 602.925 161.765ZM612.757 153.868C610.581 155.318 608.405 156.93 605.665 159.348C603.167 155.883 599.138 151.128 595.834 148.146L603.006 142.747C605.988 145.245 610.742 150.644 612.757 153.868Z" fill="#231815"/>
<path d="M644.856 155.581L638.812 194.262H623.098L617.054 155.581V126.087H644.775V155.581H644.856ZM644.372 206.834V233.266H617.698V206.834H644.372Z" fill="#231815"/>
</g>
<defs>
<clipPath id="clip0_22_420">
<rect width="645" height="237" fill="white"/>
</clipPath>
</defs>
</svg>
