<svg width="785" height="163" viewBox="0 0 785 163" fill="none" xmlns="http://www.w3.org/2000/svg">
<g clip-path="url(#clip0_21_278)">
<path d="M444 14.1672H445.562C446.976 14.1672 447.889 13.7253 448.331 12.8413L451.248 3L459.086 3L454.49 16.8485C453.488 19.1173 451.926 20.2665 449.805 20.2665H445.09L444 14.1672ZM444 40.1553H448.066C449.127 40.1553 449.834 39.6544 450.335 38.6821L455.521 28.664L445.149 28.664V22.5647L486.43 22.5647V41.8938C486.43 44.8108 484.956 46.284 482.039 46.284H473.288L472.286 40.1848H477.708C478.474 40.1848 478.857 39.8312 478.857 39.0946V28.664L463.8 28.664L456.994 42.4241C455.845 44.9876 454.077 46.2546 451.602 46.2546H445.09L444 40.1553ZM477.295 16.5834L472.728 3L480.301 3L483.778 13.2243C484.043 13.6369 484.603 13.8136 485.369 13.8136H487.372V19.9129H482.363C480.036 19.9129 478.327 18.8227 477.295 16.5834Z" fill="#231815"/>
<path d="M489.73 15.0806H492.411V11.3975H490.083V5.91703H492.411V3L499.424 3V5.91703H502.252V3L509.265 3V5.91703H511.239V11.3975H509.265V15.0806H511.769V20.6495L489.7 20.6495V15.0806H489.73ZM506.76 46.284H501.84L500.838 42.3652H502.812C503.578 42.3652 503.961 42.0116 503.961 41.2161V40.5384H497.626V46.2251H490.407V22.2112L511.121 22.2112V41.8938C511.121 44.8108 509.677 46.284 506.76 46.284ZM497.626 29.1649L503.932 29.1649V27.1907L497.626 27.1907V29.1649ZM497.626 35.8829H503.932V33.8204H497.626V35.8829ZM502.282 15.0806V11.3975H499.453V15.0806H502.282ZM529.566 39.3598C529.89 39.9196 530.421 40.1848 531.128 40.1848H532.984V46.284H529.242C526.649 46.284 524.675 45.1349 523.408 42.8956L523.172 42.2473L523.025 42.6009C521.876 45.0171 520.049 46.2546 517.545 46.2546H512.948L511.858 40.1553H514.539C515.6 40.1553 516.307 39.7134 516.779 38.8294L519.047 31.6105L514.421 18.8816L521.729 18.8816L522.288 20.6495L524.351 12.9886H520.609L520.167 14.9039C519.607 17.1727 517.987 18.2923 515.6 18.2923H512.594L511.504 12.1931H512.094C512.948 12.1931 513.567 11.7511 513.744 10.8671L515.335 3.02947L522.907 3.02947L521.994 6.91884L532.984 6.91884V13.0181H531.629L526.472 31.2569L529.566 39.3598Z" fill="#231815"/>
<path d="M558.707 9.24657H556.026V13.2538H559.179V18.9995H556.026V27.7211H548.807V18.9995H545.33V24.3326C545.33 25.3344 544.918 26.3068 544.151 27.2202C543.385 28.1336 542.384 28.5756 541.058 28.5756H536.049L535.194 23.0067H536.667C537.227 23.0067 537.581 22.8594 537.816 22.5647C538.052 22.2996 538.17 21.9165 538.17 21.504V18.9995H535.341V13.2538H538.111V9.24657H535.872V3.5009L558.678 3.5009V9.24657H558.707ZM535.518 40.1553H553.256V37.2383H536.874V31.139L553.256 31.139V28.8113H560.829V31.139L577.211 31.139V37.2383H560.829V40.1553H578.567V46.2546L535.518 46.2546V40.1553ZM548.807 13.2538V9.24657H545.33V13.2538H548.807ZM567.576 4.00181V20.5906H561.094V4.00181L567.576 4.00181ZM577.358 3V24.1264C577.358 25.1871 576.946 26.13 576.18 27.1023C575.355 28.0747 574.324 28.5167 572.998 28.5167L565.337 28.5167L564.394 22.7415L568.401 22.7415C568.961 22.7415 569.344 22.5942 569.58 22.2996C569.815 21.9754 569.933 21.6219 569.933 21.2094V3L577.358 3Z" fill="#231815"/>
<path d="M580.605 41.7971V19.6983C580.605 16.3983 582.373 14.6304 585.673 14.6304L607.064 14.6304C610.364 14.6304 612.132 16.3983 612.132 19.6983V41.7971C612.132 44.6257 610.6 46.1579 607.771 46.1579H602.144V41.2667H604.766C605.444 41.2667 605.856 40.8542 605.856 40.1765V21.1421C605.856 20.1992 605.355 19.6983 604.412 19.6983L588.325 19.6983C587.382 19.6983 586.881 20.1992 586.881 21.1421V39.6167C586.881 40.5595 587.382 41.0604 588.325 41.0604H591.035C591.978 41.0604 592.479 40.5595 592.479 39.6167V22.4091L598.755 22.4091V41.7971C598.755 44.6257 597.223 46.1579 594.394 46.1579H584.936C582.137 46.1579 580.605 44.6257 580.605 41.7971Z" fill="#231815"/>
<path d="M657.441 25.3935L636.315 25.3935V40.8626H638.908C640.41 40.8626 641.56 40.4501 642.326 39.5956L637.906 33.6731H645.92L646.48 34.3213L648.307 31.9936L637.818 31.9936V26.7488L656.38 26.7488V33.2606L651.224 39.5956L651.489 39.8608C651.931 40.5385 652.579 40.8626 653.404 40.8626H657.412V46.2547H651.312C649.486 46.2547 647.924 45.8127 646.716 44.8993C645.567 45.7538 644.211 46.2252 642.62 46.2252L628.772 46.2252V45.1645H614.393V39.7724H615.984V25.3935H614.216V20.3844L657.441 20.3844V25.3935ZM651.754 18.9996L615.542 18.9996V3.50098L656.145 3.50098V14.6387C656.145 17.5558 654.671 18.9996 651.754 18.9996ZM648.572 7.80286L623.114 7.80286V9.4529L648.572 9.4529V7.80286ZM623.114 14.7271L647.423 14.7271C648.189 14.7271 648.572 14.3736 648.572 13.578V13.0771L623.114 13.0771V14.7271ZM623.38 27.3971L628.772 27.3971V25.3935L623.38 25.3935V27.3971ZM623.38 33.6142H628.772V31.699L623.38 31.699V33.6142ZM623.38 39.8018H628.772V37.8866H623.38V39.8018Z" fill="#231815"/>
<path d="M659.504 40.1553H663.246C664.1 40.1553 664.66 39.7133 664.925 38.8294L668.314 28.1041H660.005V21.6218L678.656 21.6218V13.3422L669.021 13.3422L668.608 14.8449C667.931 17.0842 666.428 18.1744 664.041 18.1744H660.564L659.474 12.0752H660.535C661.389 12.0752 661.949 11.6332 662.214 10.7493L664.041 4.00178L671.614 4.00178L670.7 7.24292L678.626 7.24292V3.17676L686.199 3.17676V7.24292L702.699 7.24292V13.3422L686.228 13.3422V21.6513L703.053 21.6513V28.1336H694.891V39.0651C694.891 39.8017 695.245 40.1553 696.04 40.1553H703.053V46.2545H691.709C688.792 46.2545 687.319 44.7813 687.319 41.8643V28.1336H675.975L671.408 42.8955C670.73 45.1349 669.227 46.284 666.84 46.284H660.594L659.504 40.1553Z" fill="#231815"/>
<path d="M717.609 6.15275L721.94 6.15275V12.252L705.44 12.252V6.15275L710.036 6.15275V3L717.609 3V6.15275ZM719.76 40.1553H721.763V46.2546H705.616V40.1553H713.454L713.631 37.6803H711.362C708.946 37.6803 707.355 36.4427 706.618 33.9972L705.557 14.7565L711.657 14.7565L712.423 30.7265C712.6 31.3158 713.1 31.581 713.984 31.581L715.045 14.5797H721.351L719.76 40.1553ZM739.766 24.9219L739.03 26.8372H748.046V41.8938C748.046 44.8108 746.573 46.284 743.656 46.284H741.092L740.09 40.6268V46.2251H736.172V32.9659H734.905V46.2251H730.986V32.9659H729.719V46.2251L723.06 46.2251V26.8372H731.162L731.899 24.9219H722.824V18.8227L748.635 18.8227V24.9219H739.766ZM744.422 17.0843L723.354 17.0843V4.00181L729.454 4.00181V10.985H731.929V3L739.501 3V10.985H740.503C741.564 10.985 742.065 10.4841 742.065 9.42336V4.00181L748.164 4.00181V13.3422C748.164 15.8467 746.926 17.0843 744.422 17.0843ZM740.149 32.9659V40.5384H740.326C741.063 40.5384 741.416 40.1848 741.416 39.3892V32.9659H740.149Z" fill="#231815"/>
<path d="M775.394 23.0036V42.7157C775.394 45.1613 774.068 46.4872 771.623 46.4872H765.789V41.213H768.087C768.676 41.213 769.03 40.8888 769.03 40.2701V25.2429C769.03 24.2706 768.5 23.7402 767.527 23.7402L760.19 23.7402V42.7157C760.19 45.1613 758.864 46.4872 756.419 46.4872H750.732V41.213H752.883C753.472 41.213 753.826 40.8888 753.826 40.2701V23.7697H750.614V18.4955H753.885V14.5471L760.22 14.5471V18.4955L770.886 18.4955C773.833 18.4955 775.394 20.0866 775.394 23.0036ZM779.519 19.0553H775.394V13.0444L779.519 13.0444V19.0553ZM784.086 27.8653H785V33.3458L781.818 33.3458C779.372 33.3458 778.046 32.0199 778.046 29.5743V20.2044L783.527 20.2044V27.3055C783.497 27.6296 783.733 27.8653 784.086 27.8653ZM784.97 13.0444V19.0553L780.845 19.0553V13.0444H784.97Z" fill="#231815"/>
<path d="M268.326 147.812V123.689H289.454V138.352C289.454 141.505 291.188 143.24 294.342 143.24H367.186V162.554H282.911C273.451 162.475 268.326 157.351 268.326 147.812ZM344.166 84.6652C344.166 81.5118 342.431 79.7774 339.278 79.7774L270.14 79.7774V60.4628L350.63 60.4628C360.169 60.4628 365.294 65.5871 365.294 75.1261V99.2497H344.166V84.6652Z" fill="#231815"/>
<path d="M375.897 147.812V123.689H397.025V138.352C397.025 141.505 398.76 143.24 401.913 143.24H474.757V162.554H390.561C381.022 162.475 375.897 157.351 375.897 147.812ZM451.816 84.6652C451.816 81.5118 450.081 79.7774 446.928 79.7774L377.711 79.7774V60.4628L458.201 60.4628C467.74 60.4628 472.865 65.5871 472.865 75.1261V99.2497H451.737V84.6652H451.816Z" fill="#231815"/>
<path d="M484.127 85.8511H499.657V163.031H484.127V85.8511ZM507.935 153.176V135.675H523.623V144.899C523.623 147.264 524.884 148.525 527.249 148.525H559.572V162.164H516.922C511.088 162.164 507.935 159.01 507.935 153.176ZM543.411 104.456C543.411 102.091 542.149 100.83 539.784 100.83L508.329 100.83V87.1913L550.112 87.1913C555.945 87.1913 559.099 90.3447 559.099 96.1785V113.68H543.411V104.456Z" fill="#231815"/>
<path d="M616.707 75.8082V85.5838L656.992 85.5838C666.531 85.5838 671.655 90.7081 671.655 100.247V147.864C671.655 157.403 666.531 162.527 656.992 162.527H641.777V146.445H648.714C651 146.445 652.34 145.104 652.34 142.818V106.712C652.34 103.558 650.606 101.824 647.453 101.824L616.707 101.824V135.171H597.786V101.666H592.662C589.509 101.666 587.774 103.401 587.774 106.554V140.847C587.774 144.001 589.509 145.735 592.662 145.735H612.529C615.367 145.735 617.18 144.395 618.126 141.793L629.005 112.388L647.689 112.388L633.893 150.071C630.976 158.112 625.615 161.817 617.18 161.817H583.754C574.215 161.817 569.09 156.693 569.09 147.154V100.168C569.09 90.6292 574.215 85.5049 583.754 85.5049H597.786V75.7294H567.908V59.647L597.786 59.647V52H616.707V59.7258L672.838 59.7258V75.8082L616.707 75.8082Z" fill="#231815"/>
<path d="M687.768 149.598V125.317C687.768 117.354 692.025 113.097 699.987 113.097H726.239C734.202 113.097 738.459 117.354 738.459 125.317V145.971H758.798C761.952 145.971 763.686 144.237 763.686 141.084V107.736C763.686 104.583 761.952 102.849 758.798 102.849L698.174 102.849V86.2932L727.422 71.5511H682.249V55.7052L784.735 55.7052V71.5511H757.931L726.791 87.0816L769.52 87.0816C779.059 87.0816 784.183 92.2059 784.183 101.745V147.233C784.183 156.772 779.059 161.896 769.52 161.896H699.987C692.104 161.817 687.768 157.56 687.768 149.598ZM720.721 145.971V132.096C720.721 130.126 719.617 129.022 717.646 129.022H708.501C706.531 129.022 705.427 130.126 705.427 132.096V142.976C705.427 144.947 706.531 146.05 708.501 146.05H720.721V145.971Z" fill="#231815"/>
</g>
<defs>
<clipPath id="clip0_21_278">
<rect width="785" height="163" fill="white"/>
</clipPath>
</defs>
</svg>
