<svg width="645" height="237" viewBox="0 0 645 237" fill="none" xmlns="http://www.w3.org/2000/svg">
<g clip-path="url(#clip0_15_116)">
<path d="M0.354492 24.1239H3.30849C5.9838 24.1239 7.71161 23.2878 8.54765 21.6157L14.0655 3L28.8912 3L20.1964 29.1958C18.3014 33.4875 15.3474 35.6612 11.3344 35.6612H2.41671L0.354492 24.1239ZM0.354492 73.2828H8.04603C10.0525 73.2828 11.3902 72.3353 12.3377 70.496L22.1472 51.5458H2.52819L2.52819 40.0085L80.614 40.0085L80.614 76.5712C80.614 82.089 77.8272 84.8758 72.3093 84.8758H55.7558L53.8608 73.3385H64.1162C65.5653 73.3385 66.2899 72.6697 66.2899 71.2763V51.5458H37.8089L24.934 77.5744C22.7603 82.4235 19.4161 84.8201 14.7343 84.8201H2.41671L0.354492 73.2828ZM63.3359 28.6942L54.6968 3L69.0209 3L75.5978 22.3403C76.0994 23.1206 77.1584 23.455 78.6075 23.455H82.3975V34.9923H72.9224C68.5193 34.9923 65.2866 32.9301 63.3359 28.6942Z" fill="#231815"/>
<path d="M86.8563 25.8517H91.9282V18.8847H87.5251V8.51784H91.9282V3L105.193 3V8.51784H110.544V3L123.809 3V8.51784H127.543V18.8847H123.809V25.8517H128.547V36.3857L86.8005 36.3857V25.8517H86.8563ZM119.072 84.8758H109.764L107.869 77.463H111.603C113.052 77.463 113.777 76.7941 113.777 75.2893V74.0073H101.793V84.7644H88.1382L88.1382 39.3397L127.32 39.3397L127.32 76.5712C127.32 82.089 124.589 84.8758 119.072 84.8758ZM101.793 52.4934L113.721 52.4934V48.7591L101.793 48.7591V52.4934ZM101.793 65.2011H113.721V61.2996L101.793 61.2996V65.2011ZM110.6 25.8517V18.8847H105.249V25.8517H110.6ZM162.211 71.7779C162.824 72.8369 163.827 73.3385 165.165 73.3385H168.676V84.8758H161.598C156.693 84.8758 152.959 82.7021 150.562 78.4662L150.116 77.24L149.838 77.9089C147.664 82.4792 144.208 84.8201 139.471 84.8201L130.776 84.8201L128.714 73.2828L133.786 73.2828C135.792 73.2828 137.13 72.4468 138.022 70.7747L142.313 57.1194L133.563 33.0416L147.385 33.0416L148.444 36.3857L152.346 21.8944H145.267L144.431 25.5172C143.372 29.8089 140.307 31.9269 135.792 31.9269H130.107L128.045 20.3896H129.16C130.776 20.3896 131.946 19.5535 132.281 17.8814L135.291 3.05574L149.615 3.05574L147.887 10.4129L168.676 10.4129V21.9502H166.113L156.359 56.4506L162.211 71.7779Z" fill="#231815"/>
<path d="M217.334 14.816H212.262V22.396H218.226V33.2645H212.262V49.7623H198.607V33.2645H192.03V43.3527C192.03 45.2477 191.249 47.087 189.8 48.8148C188.351 50.5426 186.456 51.3786 183.948 51.3786H174.473L172.857 40.8446H175.643C176.702 40.8446 177.371 40.5659 177.817 40.0085C178.263 39.5069 178.486 38.7824 178.486 38.0021V33.2645H173.135V22.396H178.375V14.816H174.139V3.94751L217.278 3.94751V14.816H217.334ZM173.47 73.2828H207.023V67.7649H176.034V56.2276L207.023 56.2276V51.8245H221.347V56.2276L252.336 56.2276V67.7649H221.347V73.2828H254.9V84.8201L173.47 84.8201V73.2828ZM198.607 22.396V14.816H192.03V22.396H198.607ZM234.11 4.89502V36.2742H221.848V4.89502L234.11 4.89502ZM252.615 3V42.9625C252.615 44.969 251.834 46.7526 250.385 48.5918C248.825 50.4311 246.874 51.2672 244.366 51.2672L229.874 51.2672L228.091 40.343H235.671C236.73 40.343 237.454 40.0643 237.9 39.5069C238.346 38.8938 238.569 38.225 238.569 37.4447V3L252.615 3Z" fill="#231815"/>
<path d="M258.755 76.3884V34.5865C258.755 28.3441 262.099 25 268.342 25L308.806 25C315.048 25 318.392 28.3441 318.392 34.5865V76.3884C318.392 81.739 315.494 84.6372 310.143 84.6372H299.498V75.3851H304.458C305.74 75.3851 306.521 74.6048 306.521 73.3229V37.3176C306.521 35.5341 305.573 34.5865 303.79 34.5865L273.358 34.5865C271.574 34.5865 270.627 35.5341 270.627 37.3176V72.2639C270.627 74.0475 271.574 74.995 273.358 74.995H278.486C280.269 74.995 281.217 74.0475 281.217 72.2639V39.7142L293.088 39.7142V76.3884C293.088 81.739 290.19 84.6372 284.839 84.6372H266.948C261.653 84.6372 258.755 81.739 258.755 76.3884Z" fill="#231815"/>
<path d="M404.098 45.3593L364.136 45.3593V74.6206L369.041 74.6206C371.883 74.6206 374.057 73.8403 375.506 72.2239L367.146 61.021H382.306L383.365 62.2472L386.82 57.8441H366.978V47.9231L402.092 47.9231V60.2407L392.338 72.2239L392.84 72.7256C393.676 74.0075 394.902 74.6206 396.463 74.6206H404.043V84.8202H392.505C389.05 84.8202 386.096 83.9842 383.811 82.2564C381.637 83.8727 379.073 84.7645 376.063 84.7645L349.867 84.7645V82.758H322.668V72.5583H325.678V45.3593H322.334V35.8842L404.098 35.8842V45.3593ZM393.341 33.2646L324.842 33.2646V3.94763L401.646 3.94763V25.0157C401.646 30.5336 398.859 33.2646 393.341 33.2646ZM387.322 12.0851L339.166 12.0851V15.2063L387.322 15.2063V12.0851ZM339.166 25.183L385.148 25.183C386.597 25.183 387.322 24.5141 387.322 23.0093V22.0618L339.166 22.0618V25.183ZM339.668 49.1493L349.867 49.1493V45.3593L339.668 45.3593V49.1493ZM339.668 60.9096L349.867 60.9096V57.2868L339.668 57.2868V60.9096ZM339.668 72.6141H349.867V68.9913H339.668V72.6141Z" fill="#231815"/>
<path d="M408 73.2828H415.078C416.695 73.2828 417.754 72.4468 418.255 70.7747L424.665 50.4869H408.947V38.225L444.228 38.225V22.5633L426.002 22.5633L425.222 25.4058C423.94 29.6417 421.098 31.704 416.583 31.704H410.006L407.944 20.1667H409.951C411.567 20.1667 412.626 19.3306 413.128 17.6586L416.583 4.89507L430.907 4.89507L429.179 11.026L444.172 11.026V3.33447L458.496 3.33447V11.026L489.708 11.026V22.5633L458.552 22.5633V38.2808L490.377 38.2808V50.5426H474.938V71.2206C474.938 72.614 475.607 73.2828 477.112 73.2828H490.377V84.8201H468.919C463.401 84.8201 460.614 82.0333 460.614 76.5155V50.5426H439.156L430.517 78.4662C429.235 82.7022 426.393 84.8759 421.878 84.8759H410.062L408 73.2828Z" fill="#231815"/>
<path d="M517.911 8.96373L526.104 8.96373V20.501L494.892 20.501V8.96373L503.587 8.96373V3L517.911 3V8.96373ZM521.979 73.2828H525.769V84.8201H495.226V73.2828H510.052L510.386 68.601H506.095C501.524 68.601 498.515 66.2601 497.121 61.634L495.115 25.2386L506.652 25.2386L508.101 55.4473C508.436 56.5621 509.383 57.0637 511.055 57.0637L513.062 24.9042H524.989L521.979 73.2828ZM559.824 44.4674L558.431 48.0902L575.486 48.0902V76.5712C575.486 82.089 572.699 84.8758 567.181 84.8758H562.332L560.437 74.1746V84.7644H553.024V59.6833H550.628V84.7644H543.215V59.6833H540.818V84.7644L528.222 84.7644V48.0902H543.549L544.943 44.4674H527.776V32.9301L576.6 32.9301V44.4674L559.824 44.4674ZM568.63 29.6417L528.779 29.6417V4.89502L540.316 4.89502V18.1044H544.998V3L559.322 3V18.1044H561.217C563.224 18.1044 564.171 17.1569 564.171 15.1504V4.89502L575.709 4.89502V22.5632C575.709 27.3008 573.368 29.6417 568.63 29.6417ZM560.549 59.6833V74.0073H560.883C562.276 74.0073 562.945 73.3385 562.945 71.8337V59.6833L560.549 59.6833Z" fill="#231815"/>
<path d="M627.218 40.8387V78.1259C627.218 82.752 624.71 85.2601 620.084 85.2601H609.048V75.2834H613.396C614.51 75.2834 615.179 74.6703 615.179 73.4998V45.0746C615.179 43.2353 614.176 42.2321 612.337 42.2321H598.458V78.1259C598.458 82.752 595.95 85.2601 591.324 85.2601H580.567V75.2834H584.636C585.751 75.2834 586.419 74.6703 586.419 73.4998V42.2878H580.344V32.3111H586.531V24.8425L598.514 24.8425V32.3111L618.69 32.3111C624.264 32.3111 627.218 35.3208 627.218 40.8387ZM635.021 33.3701H627.218V22H635.021V33.3701ZM643.66 50.0351H645.388V60.4019H639.368C634.742 60.4019 632.234 57.8938 632.234 53.2678V35.5438L642.601 35.5438V48.9761C642.545 49.5892 642.991 50.0351 643.66 50.0351ZM645.332 22V33.3701L637.529 33.3701V22H645.332Z" fill="#231815"/>
<path d="M0 218.191L0 188.06H26.3889V206.375C26.3889 210.314 28.5551 212.48 32.4938 212.48H123.476V236.604H18.2162C6.40029 236.506 0 230.105 0 218.191ZM94.7242 139.32C94.7242 135.381 92.558 133.215 88.6194 133.215H2.26472L2.26472 109.091L102.798 109.091C114.713 109.091 121.113 115.491 121.113 127.405L121.113 157.536L94.7242 157.536L94.7242 139.32Z" fill="#231815"/>
<path d="M134.357 218.191L134.357 188.06H160.746V206.375C160.746 210.314 162.913 212.48 166.851 212.48H257.834V236.604H152.672C140.758 236.506 134.357 230.105 134.357 218.191ZM229.18 139.32C229.18 135.381 227.014 133.215 223.075 133.215H136.622V109.091L237.156 109.091C249.07 109.091 255.471 115.491 255.471 127.405V157.536L229.082 157.536V139.32H229.18Z" fill="#231815"/>
<path d="M269.537 140.801H288.935V237.199H269.537V140.801ZM299.274 224.891V203.031H318.868V214.552C318.868 217.506 320.444 219.081 323.398 219.081H363.769V236.116H310.499C303.212 236.116 299.274 232.177 299.274 224.891ZM343.583 164.039C343.583 161.085 342.008 159.509 339.054 159.509H299.766V142.475H351.953C359.239 142.475 363.178 146.413 363.178 153.7V175.559H343.583V164.039Z" fill="#231815"/>
<path d="M435.131 128.257V140.467L485.447 140.467C497.362 140.467 503.762 146.867 503.762 158.782V218.255C503.762 230.17 497.362 236.57 485.447 236.57H466.443V216.483H475.108C477.964 216.483 479.638 214.809 479.638 211.953V166.856C479.638 162.917 477.471 160.751 473.533 160.751H435.131V202.402H411.499V160.554H405.099C401.16 160.554 398.994 162.72 398.994 166.659V209.492C398.994 213.43 401.16 215.597 405.099 215.597H429.912C433.457 215.597 435.722 213.923 436.903 210.673L450.492 173.946H473.828L456.597 221.012C452.953 231.056 446.258 235.684 435.722 235.684H393.972C382.058 235.684 375.658 229.283 375.658 217.369V158.683C375.658 146.769 382.058 140.369 393.972 140.369H411.499V128.159H374.181V108.072H411.499V98.5206L435.131 98.5206V108.17L505.239 108.17V128.257L435.131 128.257Z" fill="#231815"/>
<path d="M523.887 220.421V190.094C523.887 180.149 529.204 174.832 539.149 174.832H571.938C581.883 174.832 587.2 180.149 587.2 190.094V215.892H612.605C616.543 215.892 618.709 213.726 618.709 209.787V168.136C618.709 164.197 616.543 162.031 612.605 162.031H536.884V141.353L573.415 122.94L516.994 122.94V103.148L645 103.148V122.94L611.521 122.94L572.627 142.338H625.996C637.91 142.338 644.311 148.738 644.311 160.653V217.467C644.311 229.382 637.91 235.782 625.996 235.782L539.149 235.782C529.302 235.684 523.887 230.366 523.887 220.421ZM565.046 215.892V198.562C565.046 196.1 563.667 194.722 561.205 194.722H549.783C547.322 194.722 545.943 196.1 545.943 198.562V212.15C545.943 214.612 547.322 215.99 549.783 215.99H565.046V215.892Z" fill="#231815"/>
</g>
<defs>
<clipPath id="clip0_15_116">
<rect width="645" height="237" fill="white"/>
</clipPath>
</defs>
</svg>
