<svg width="785" height="163" viewBox="0 0 785 163" fill="none" xmlns="http://www.w3.org/2000/svg">
<g clip-path="url(#clip0_15_82)">
<path d="M23.845 0.596122V5.06706L14.456 5.06706L14.456 33.9791H9.23994L9.23994 4.99255L0 4.99255L0 0.521606L23.845 0.521606V0.596122Z" fill="#231815"/>
<path d="M29.9553 10.2086L34.6498 27.9433L39.9404 10.2086L43.9643 10.2086L49.1804 27.9433L54.0239 10.2086H59.0164L52.012 34.2027H46.9449L41.8033 17.8837L36.9598 34.2027H31.8927L24.9628 10.2086H29.9553Z" fill="#231815"/>
<path d="M68.8524 0.596069V5.9612L63.4873 5.9612V0.596069L68.8524 0.596069ZM68.5544 10.2086V33.9791H63.7109L63.7109 10.2086H68.5544Z" fill="#231815"/>
<path d="M87.705 10.2084L87.6304 14.0832H82.4143C82.3398 16.9148 82.2653 24.2919 82.2653 24.8135V26.5273C82.2653 28.1667 82.3398 28.8373 82.7124 29.3589C83.085 29.806 83.8301 30.1786 84.7243 30.1786C85.8421 30.1786 87.0343 29.8806 88.3011 29.3589L88.2266 33.4573C86.4382 34.1279 85.0969 34.426 83.4576 34.426C80.924 34.426 78.9866 33.5318 78.0179 31.8925C77.4218 30.9238 77.1982 29.806 77.1982 27.7941C77.1982 26.9744 77.2728 26.6019 77.2728 24.6645L77.5708 14.1577H73.9196L73.9941 10.2829H77.6453L77.7944 3.42749L82.5634 3.42749L82.4143 10.2829H87.705V10.2084Z" fill="#231815"/>
<path d="M104.992 10.2084L104.918 14.0832H99.7018C99.6273 16.9148 99.5528 24.2919 99.5528 24.8135V26.5273C99.5528 28.1667 99.6273 28.8373 99.9999 29.3589C100.372 29.806 101.118 30.1786 102.012 30.1786C103.13 30.1786 104.322 29.8806 105.589 29.3589L105.514 33.4573C103.726 34.1279 102.384 34.426 100.745 34.426C98.2115 34.426 96.2741 33.5318 95.3054 31.8925C94.7093 30.9238 94.4857 29.806 94.4857 27.7941C94.4857 26.9744 94.5602 26.6019 94.5602 24.6645L94.8583 14.1577H91.207L91.2816 10.2829H94.9328L95.0819 3.42749L99.8509 3.42749L99.7018 10.2829H104.992V10.2084Z" fill="#231815"/>
<path d="M114.158 23.0998C114.382 28.0178 116.543 30.5514 120.641 30.5514C123.174 30.5514 124.665 29.5827 125.708 27.2727H130.179C129.061 31.8927 125.559 34.5752 120.492 34.5752C113.562 34.5752 109.166 29.8062 109.166 22.3547C109.166 14.605 113.487 9.53796 120.119 9.53796C126.379 9.53796 130.402 14.3815 130.402 22.0566V23.0998L114.158 23.0998ZM125.41 19.4485C124.963 15.4992 123.1 13.4128 120.045 13.4128C116.99 13.4128 115.052 15.4247 114.307 19.4485H125.41Z" fill="#231815"/>
<path d="M140.685 10.2086C140.909 11.3264 141.058 12.5931 141.058 13.7109V14.7541C142.846 11.1773 144.709 9.68701 147.466 9.68701C148.361 9.68701 149.255 9.83604 150.074 10.1341V15.1267C148.957 14.456 147.913 14.0834 146.796 14.0834C143.294 14.0834 141.282 17.5112 141.282 23.3979V33.9791H136.289V17.8837C136.289 12.4441 136.215 12.146 135.991 10.1341H140.685V10.2086Z" fill="#231815"/>
<path d="M163.487 23.4724C163.487 20.4173 163.487 19.8212 163.562 18.8525C163.711 16.8405 164.456 15.5738 166.915 13.0402C169.449 10.4322 169.97 9.46349 169.97 7.82414C169.97 5.81222 168.554 4.47094 166.468 4.47094C164.158 4.47094 163.04 5.88673 162.817 9.16542H157.452C157.526 6.11028 158.048 4.39642 159.389 2.90611C161.028 0.968703 163.711 0 166.99 0C172.206 0 175.41 2.90611 175.41 7.6006C175.41 10.3577 174.665 11.699 171.163 15.3502C168.554 18.1073 168.256 18.7034 168.256 21.9076C168.256 22.4292 168.256 22.8018 168.331 23.5469H163.487V23.4724ZM168.853 28.0179V33.9046H162.966V28.0179L168.853 28.0179Z" fill="#231815"/>
<path d="M212.221 0.596069C216.692 0.596069 219.001 0.968647 220.79 2.1609C222.876 3.42766 224.069 5.66313 224.069 8.56924C224.069 12.5931 222.206 15.0521 218.256 16.3189C223.323 17.5111 225.782 20.3427 225.782 24.8882C225.782 28.3159 224.218 31.1475 221.461 32.6378C219.598 33.681 217.288 33.9791 212.966 33.9791H203.279V0.596069L212.221 0.596069ZM213.264 14.456C217.064 14.456 219.001 12.6676 219.001 9.16537C219.001 6.03571 217.362 4.84346 213.189 4.84346L208.495 4.84346V14.456L213.264 14.456ZM213.562 29.6572C216.542 29.6572 218.182 29.2846 219.076 28.4649C220.045 27.5707 220.492 26.2295 220.492 24.4411C220.492 20.4172 218.331 18.6289 213.636 18.6289H208.42V29.6572H213.562Z" fill="#231815"/>
<path d="M236.587 28.1669C236.587 29.8062 236.96 30.1043 238.599 30.1043C239.493 30.1043 240.164 30.0298 241.133 29.8062V34.1281C239.27 34.4262 238.599 34.4262 237.332 34.4262C235.32 34.4262 233.83 34.1281 233.01 33.532C232.042 32.7869 231.669 31.7436 231.669 29.5082V0.372559L236.587 0.372559V28.1669Z" fill="#231815"/>
<path d="M249.925 10.2085V24.2174C249.925 26.3039 250.224 27.7197 250.745 28.5393C251.49 29.5826 252.832 30.1787 254.322 30.1787C256.259 30.1787 257.824 29.2845 258.644 27.7942C259.24 26.751 259.538 25.4097 259.538 23.3232V10.2085L264.456 10.2085V28.7629C264.456 31.669 264.531 32.3396 265.052 33.979H260.358C260.06 33.1593 259.911 32.3396 259.911 31.0729C258.271 33.5319 256.408 34.5751 253.353 34.5751C250.224 34.5751 247.615 33.2338 246.2 30.9984C245.38 29.6571 245.007 27.6452 245.007 24.5155V10.3575H249.925V10.2085Z" fill="#231815"/>
<path d="M275.335 23.0998C275.559 28.0178 277.72 30.5514 281.818 30.5514C284.352 30.5514 285.842 29.5827 286.885 27.2727H291.356C290.238 31.8927 286.736 34.5752 281.669 34.5752C274.739 34.5752 270.343 29.8062 270.343 22.3547C270.343 14.605 274.665 9.53796 281.297 9.53796C287.556 9.53796 291.58 14.3815 291.58 22.0566V23.0998L275.335 23.0998ZM286.587 19.4485C286.14 15.4992 284.277 13.4128 281.222 13.4128C278.167 13.4128 276.23 15.4247 275.484 19.4485H286.587Z" fill="#231815"/>
<path d="M309.985 17.064C309.613 14.5304 308.271 13.3382 305.663 13.3382C303.353 13.3382 301.788 14.6049 301.788 16.3188C301.788 17.1385 302.161 17.8836 302.832 18.3307C303.502 18.7778 304.471 19.1504 307.452 19.9701C311.103 21.0133 312.668 21.7584 313.562 22.8762C314.456 23.9194 314.978 25.4097 314.978 26.9745C314.978 31.669 311.55 34.5006 305.812 34.5006C299.553 34.5006 296.051 31.5945 296.051 26.3039V26.1549H300.671C300.82 27.7197 301.043 28.3903 301.714 29.061C302.534 30.0297 304.024 30.5513 305.738 30.5513C308.42 30.5513 310.06 29.2845 310.06 27.1981C310.06 26.1549 309.613 25.5587 308.495 24.9626C307.675 24.59 307.154 24.3665 303.279 23.1742C300.671 22.3546 299.329 21.6839 298.435 20.7152C297.392 19.672 296.87 18.1817 296.87 16.5423C296.87 12.2204 300.447 9.31433 305.812 9.31433C311.252 9.31433 314.456 12.0714 314.754 16.8404H309.985V17.064Z" fill="#231815"/>
<path d="M335.321 10.2087L341.282 10.2087L331.371 21.088L342.101 33.9792H335.395L326.081 21.9077V33.9792H321.163V0.447144L326.081 0.447144V20.5664L335.321 10.2087Z" fill="#231815"/>
<path d="M349.553 10.2086L355.365 29.0611L361.401 10.2086H366.468L358.569 32.7868C356.408 38.8971 355.812 40.0894 353.8 41.7287C352.012 43.1445 349.553 43.8897 346.498 43.8897C346.125 43.8897 345.604 43.8897 344.859 43.8152V39.4932H345.678C349.777 39.4932 351.192 38.5245 352.683 34.5007L344.337 10.0596H349.553V10.2086Z" fill="#231815"/>
<path d="M375.559 23.4724C375.559 20.4173 375.559 19.8212 375.633 18.8525C375.782 16.8405 376.528 15.5738 378.987 13.0402C381.52 10.4322 382.042 9.46349 382.042 7.82414C382.042 5.81222 380.626 4.47094 378.54 4.47094C376.23 4.47094 375.112 5.88673 374.888 9.16542H369.523C369.598 6.11028 370.119 4.39642 371.461 2.90611C373.1 0.968703 375.783 0 379.061 0C384.277 0 387.481 2.90611 387.481 7.6006C387.481 10.3577 386.736 11.699 383.234 15.3502C380.626 18.1073 380.328 18.7034 380.328 21.9076C380.328 22.4292 380.328 22.8018 380.402 23.5469H375.559V23.4724ZM380.924 28.0179V33.9046H375.037V28.0179L380.924 28.0179Z" fill="#231815"/>
<path d="M44.037 57.4692L44.037 145.994H24.961V143.088H21.0862V150.316H1.11597L1.11597 57.4692L44.037 57.4692ZM24.961 76.9178H21.0862L21.0862 89.2874H24.961L24.961 76.9178ZM21.0862 109.779V123.416H24.961V109.779H21.0862ZM103.575 107.991H110.803V127.216H103.575V147.186C103.575 152.849 102.457 157.618 96.9431 160.226C91.9505 162.611 84.2754 162.909 77.569 162.909H71.9058C71.7568 157.246 71.0862 152.626 68.8507 147.335C66.1681 148.751 62.2188 151.359 59.0891 153.371C56.183 146.963 50.8924 139.362 46.0489 134.146L57.5243 127.29H47.5392L47.5392 108.065L80.4006 108.065V103.818L45.9744 103.818V84.7419H66.9878V79.8984L48.3589 79.8984L48.3589 61.046L66.9878 61.046V51.2844L91.2799 51.657C92.3976 51.657 93.2173 52.4022 93.2173 53.5944C93.2173 54.7121 91.876 55.6808 90.1622 56.3515V61.046H109.76V79.8239H90.1622V84.6674L112.07 84.6674L112.07 103.743L103.5 103.743V107.991H103.575ZM78.1651 141.746C80.3261 141.746 80.4751 140.405 80.4751 138.617V127.216H65.1249C68.8507 131.836 72.3529 136.53 75.259 141.597C76.6003 141.746 77.1964 141.746 78.1651 141.746Z" fill="#231815"/>
<path d="M147.465 82.7302L163.336 81.0164C162.889 74.9806 162.74 68.1997 162.591 50.3904L187.479 51.7317C188.672 51.8807 190.162 52.1043 190.162 53.4456C190.162 54.6378 188.821 55.383 186.436 56.5007C186.436 63.8778 186.436 71.2548 186.66 78.6319L197.539 77.4396C194.633 71.2548 191.131 64.7719 187.107 59.3323L203.202 49.7943C208.418 56.3517 213.113 63.4307 217.137 70.7332C214.752 71.9254 213.411 72.6706 207.226 76.3964L221.384 74.9806L223.098 96.8882L188.895 100.614C190.46 110.301 192.621 117.305 196.645 126.247C197.614 128.408 200.743 133.997 203.426 133.997C205.959 133.997 206.928 125.279 207.45 120.063C211.175 125.502 218.851 133.475 224.961 136.009C224.141 142.045 221.906 149.943 219.298 155.383C216.615 160.599 212.666 163.133 206.854 163.133C195.155 163.133 184.871 151.285 179.134 142.119C171.906 130.42 168.254 116.709 166.093 103.222L149.402 105.01L147.986 86.9776C147.539 87.2012 146.868 87.4247 145.9 87.7228L145.9 163.654H122.427V113.133C121.31 114.325 120.266 115.443 119.074 116.486C112.219 104.414 111.474 103.222 106.481 97.1117C113.038 90.1073 118.851 82.2086 123.545 73.7883C126.898 67.7526 132.86 55.7556 133.605 49.1237L157.673 57.0968C158.791 57.4694 159.238 58.0655 159.238 59.1833C159.238 60.5991 157.897 61.1207 154.916 61.7168C152.159 68.5722 148.657 76.2474 144.857 82.6557L147.614 83.4009V82.7302H147.465Z" fill="#231815"/>
<path d="M245.08 80.8673C245.751 81.0908 246.347 81.4634 246.347 81.985C246.347 83.2518 244.931 83.4753 243.664 83.6243C240.386 95.1743 238.001 108.065 238.001 120.062C238.001 123.49 238.225 126.098 238.672 129.526C240.088 127.291 241.727 124.906 243.143 122.82C244.931 126.322 247.241 129.228 249.924 132.209C245.304 139.138 241.951 146.963 242.1 155.383L229.432 157.767C225.93 145.398 224.29 132.507 224.29 119.541C224.29 105.457 226.153 89.9582 229.953 76.3218L245.08 80.8673ZM273.322 75.9492L289.939 78.7808C290.609 78.8553 291.205 79.1534 291.205 79.824C291.205 80.9418 289.864 81.2398 289.044 81.3143C288.597 85.1146 288.299 88.9149 288.076 92.6407C293.068 91.672 297.241 90.7778 302.085 89.1385V103.445C297.39 104.563 292.547 105.606 287.703 106.501C287.703 112.685 288.15 122.298 289.193 128.259C294.857 130.122 302.904 133.848 307.152 138.021C305.065 141.821 303.426 145.323 300.743 151.359C297.688 148.453 294.559 145.845 290.609 144.131C290.237 154.787 280.848 157.693 271.757 157.693C265.721 157.693 260.132 156.277 255.512 152.104C252.383 149.273 250.892 145.398 250.892 141.15C250.892 129.824 262.442 125.949 271.98 125.949H274.365C273.992 121.255 273.545 113.356 273.322 108.438C269.745 108.736 266.094 108.885 262.442 108.885C260.207 108.885 257.822 108.811 255.438 108.587V93.7585C259.909 94.3546 264.156 94.5036 268.106 94.5036C269.745 94.5036 271.161 94.5036 273.247 94.4291C273.247 88.3933 273.247 82.134 273.322 75.9492ZM270.415 137.499C268.255 137.499 263.784 138.17 263.784 141.076C263.784 143.908 267.733 144.578 269.968 144.578C273.545 144.578 276.302 143.237 276.302 139.884C276.302 139.511 276.302 139.213 276.228 138.617C274.29 137.872 272.502 137.499 270.415 137.499Z" fill="#231815"/>
<path d="M334.006 101.775L334.975 160.195H308V61.089L334.975 61.089L374.543 119.509L373.574 61.089L400.549 61.089V160.269H373.574L334.006 101.775Z" fill="#231815"/>
<path d="M443.419 85.2322C467.115 85.2322 482.689 100.135 482.689 124.055C482.689 147.974 467.115 162.877 443.419 162.877C419.574 162.877 404 148.123 404 124.055C404 100.135 419.574 85.2322 443.419 85.2322ZM443.419 103.861C431.72 103.861 429.484 115.56 429.484 124.875C429.484 133.816 432.614 144.249 443.419 144.249C454.522 144.249 457.353 133.22 457.353 124.055C457.279 114.964 454.522 103.861 443.419 103.861Z" fill="#231815"/>
<path d="M510.533 137.393C510.906 144.547 514.632 146.335 521.413 146.335C524.915 146.335 530.578 145.739 530.578 141.044C530.578 136.722 527.672 136.052 514.632 132.922C507.851 131.208 499.282 128.6 493.693 124.353C488.7 120.478 487.434 115.635 487.434 109.599C487.434 90.5973 504.349 85.3066 520.295 85.3066C529.46 85.3066 541.308 87.4676 548.089 94.2485C551.964 98.1233 553.305 102.594 553.902 107.885L528.864 107.885C528.715 105.351 528.119 101.849 520.071 101.849C516.793 101.849 511.726 102.594 511.726 106.693C511.726 110.791 516.942 111.909 528.864 114.666C535.273 116.082 544.066 118.988 549.654 123.161C554.349 126.514 556.063 132.252 556.063 137.766C556.063 143.95 553.753 149.465 549.431 153.861C542.054 161.015 530.057 162.952 520.146 162.952C510.459 162.952 498.76 160.791 491.756 153.787C487.136 149.092 485.72 143.727 484.975 137.468H510.533V137.393Z" fill="#231815"/>
<path d="M593.599 134.562C593.599 140.15 595.909 143.056 601.721 143.056H607.683V162.058C602.467 162.43 593.748 162.878 590.395 162.878C576.982 162.878 568.636 158.258 568.636 143.876V102.892H557.31V87.9148H568.562V67.3485H593.599V87.9148H607.608V102.892H593.599V134.562Z" fill="#231815"/>
<path d="M635.34 101.775C637.054 95.9624 639.215 91.2679 644.878 88.3618C649.2 86.0518 654.565 85.2322 659.408 85.2322H666.413V111.238H658.216C653.522 111.238 649.051 111.611 644.803 114.293C638.991 117.796 637.277 125.545 637.277 131.953V160.269H612.985V87.9893H634.967L635.34 101.775Z" fill="#231815"/>
<path d="M695.632 75.4271L712.174 79.5255C712.92 79.749 713.814 79.8981 713.814 80.7923C713.814 81.761 712.622 82.1335 711.876 82.2826C711.131 85.6358 710.237 89.138 709.417 92.1186C715.379 91.0754 719.924 89.5851 725.587 87.1261L727.078 102.551C720.818 104.563 715.155 105.68 705.245 107.022C702.189 116.709 699.954 123.341 695.856 132.655C691.087 143.907 686.169 153.52 679.76 163.952C674.768 160.897 670.595 158.81 665.23 156.426C676.481 141.373 683.188 126.768 689 109.108C682.741 109.406 676.929 109.63 671.414 109.704L670.148 93.907C673.873 94.4286 677.674 94.5031 681.4 94.5031C685.274 94.5031 689.224 94.4286 693.098 94.1306C694.44 87.7222 695.334 81.9845 695.632 75.4271ZM719.179 137.946C717.54 140.256 716.645 141.746 716.645 143.236C716.645 145.546 718.136 146.441 720.148 146.962C723.575 147.931 727.152 147.931 730.654 147.931C737.882 147.931 745.483 146.888 752.115 143.907C752.04 145.472 751.891 148.005 751.891 149.57C751.891 153.296 751.966 156.798 752.562 160.524C746.601 161.716 740.788 162.163 734.753 162.163C723.948 162.163 702.935 161.791 702.935 146.441C702.935 142.566 704.574 138.169 706.511 133.549L719.179 137.946ZM734.753 108.438C740.043 108.438 745.259 108.959 750.476 109.704C749.805 115.069 749.507 119.764 749.507 125.129C744.514 123.937 738.18 123.564 732.964 123.564C726.929 123.564 720.595 123.937 714.708 125.129V110.524C721.265 109.257 727.972 108.438 734.753 108.438ZM746.228 94.4286C743.173 96.217 741.534 97.3347 738.851 99.7192C736.019 95.5464 733.188 91.8951 730.282 88.9145L736.988 83.7729C740.341 87.0516 743.471 90.6283 746.228 94.4286ZM755.319 87.1261C753.307 88.4674 751.295 89.9577 748.762 92.1931C746.452 88.989 742.726 84.5926 739.671 81.8355L746.303 76.8429C749.06 79.1529 753.456 84.1455 755.319 87.1261Z" fill="#231815"/>
<path d="M785 88.7102L779.411 124.478H764.881L759.292 88.7102V61.4375L784.925 61.4375V88.7102H785ZM784.553 136.102V160.543H759.888V136.102H784.553Z" fill="#231815"/>
</g>
<defs>
<clipPath id="clip0_15_82">
<rect width="785" height="163" fill="white"/>
</clipPath>
</defs>
</svg>
