<svg width="30" height="30" viewBox="0 0 30 30" fill="none" xmlns="http://www.w3.org/2000/svg">
<g clip-path="url(#clip0_29_492)">
<path d="M30 15C30 23.2843 23.2843 30 15 30C6.71573 30 0 23.2843 0 15C0 8 6.71573 0.5 15 0.5C23.2843 0.5 30 8 30 15Z" fill="#1877F2"/>
<path d="M15 0C6.71625 0 0 6.75085 0 15.0773C0 22.636 5.54 28.878 12.7575 29.9686V19.0727H9.04625V15.1099H12.7575V12.4727C12.7575 8.10655 14.8738 6.19048 18.4838 6.19048C20.2125 6.19048 21.1275 6.31989 21.56 6.37769V9.83666H19.0975C17.565 9.83666 17.03 11.2979 17.03 12.9438V15.1099H21.5212L20.9125 19.0727H17.03V30C24.3513 29.0024 30 22.7101 30 15.0773C30 6.75085 23.2837 0 15 0Z" fill="white"/>
<path d="M15 0C6.71625 0 0 6.75085 0 15.0773C0 22.636 5.54 28.878 12.7575 29.9686V19.0727H9.04625V15.1099H12.7575V12.4727C12.7575 8.10655 14.8738 6.19048 18.4838 6.19048C20.2125 6.19048 21.1275 6.31989 21.56 6.37769V9.83666H19.0975C17.565 9.83666 17.03 11.2979 17.03 12.9438V15.1099H21.5212L20.9125 19.0727H17.03V30C24.3513 29.0024 30 22.7101 30 15.0773C30 6.75085 23.2837 0 15 0Z" fill="white"/>
</g>
<defs>
<clipPath id="clip0_29_492">
<rect width="30" height="30" fill="white"/>
</clipPath>
</defs>
</svg>
