<svg width="40" height="40" viewBox="0 0 40 40" fill="none" xmlns="http://www.w3.org/2000/svg">
<g clip-path="url(#clip0_29_487)">
<path d="M20 0C14.6957 0 9.60859 2.10714 5.85786 5.85786C2.10714 9.60859 0 14.6957 0 20C0 25.3043 2.10714 30.3914 5.85786 34.1421C9.60859 37.8929 14.6957 40 20 40C25.3043 40 30.3914 37.8929 34.1421 34.1421C37.8929 30.3914 40 25.3043 40 20C40 14.6957 37.8929 9.60859 34.1421 5.85786C30.3914 2.10714 25.3043 0 20 0Z" fill="#1D9BF0"/>
<path d="M32 13.12C31.118 13.511 30.001 13.878 29 14C30.018 13.396 31.633 12.138 32 11C31.049 11.559 29.329 12.156 28.207 12.372C27.311 11.422 26.033 11 24.617 11C21.897 11 20 13.305 20 16V18C16 18 12.1 14.953 9.673 12C9.246 12.721 9.006 13.565 9.006 14.457C9.006 16.276 10.677 18.122 12 19C11.193 18.975 9.665 18.359 9 18C9 18.016 9 18.036 9 18.057C9 20.424 10.661 22.031 12.912 22.479C12.501 22.592 12 23 10.072 23C10.698 24.935 13.845 25.958 16 26C14.314 27.307 11.308 28 9 28C8.601 28 8.385 28.022 8 27.977C10.178 29.357 13.22 30 16 30C25.057 30 30 23.082 30 16.63C30 16.418 29.993 15.708 29.982 15.5C30.95 14.818 31.342 14.104 32 13.12Z" fill="white"/>
</g>
<defs>
<clipPath id="clip0_29_487">
<rect width="40" height="40" fill="white"/>
</clipPath>
</defs>
</svg>
