<?xml version="1.0" encoding="utf-8"?>
<!-- Generator: Adobe Illustrator 26.0.1, SVG Export Plug-In . SVG Version: 6.00 Build 0)  -->
<svg version="1.1" id="レイヤー_1" xmlns="http://www.w3.org/2000/svg" xmlns:xlink="http://www.w3.org/1999/xlink" x="0px"
	 y="0px" viewBox="0 0 1081.6 221.4" style="enable-background:new 0 0 1081.6 221.4;" xml:space="preserve">
<style type="text/css">
	.st0{fill:#231815;}
</style>
<g>
	<g>
		<path class="st0" d="M42,10.8v6H29.4v38.8h-7V16.7H10v-6H42z"/>
		<path class="st0" d="M50.2,23.7l6.3,23.8l7.1-23.8H69l7,23.8l6.5-23.8h6.7l-9.4,32.2h-6.8L66.1,34l-6.5,21.9h-6.8l-9.3-32.2H50.2z
			"/>
		<path class="st0" d="M102.4,10.8V18h-7.2v-7.2H102.4z M102,23.7v31.9h-6.5V23.7H102z"/>
		<path class="st0" d="M127.7,23.7l-0.1,5.2h-7c-0.1,3.8-0.2,13.7-0.2,14.4v2.3c0,2.2,0.1,3.1,0.6,3.8c0.5,0.6,1.5,1.1,2.7,1.1
			c1.5,0,3.1-0.4,4.8-1.1l-0.1,5.5c-2.4,0.9-4.2,1.3-6.4,1.3c-3.4,0-6-1.2-7.3-3.4c-0.8-1.3-1.1-2.8-1.1-5.5c0-1.1,0.1-1.6,0.1-4.2
			l0.4-14.1h-4.9l0.1-5.2h4.9l0.2-9.2h6.4l-0.2,9.2H127.7z"/>
		<path class="st0" d="M150.9,23.7l-0.1,5.2h-7c-0.1,3.8-0.2,13.7-0.2,14.4v2.3c0,2.2,0.1,3.1,0.6,3.8c0.5,0.6,1.5,1.1,2.7,1.1
			c1.5,0,3.1-0.4,4.8-1.1l-0.1,5.5c-2.4,0.9-4.2,1.3-6.4,1.3c-3.4,0-6-1.2-7.3-3.4c-0.8-1.3-1.1-2.8-1.1-5.5c0-1.1,0.1-1.6,0.1-4.2
			l0.4-14.1h-4.9l0.1-5.2h4.9l0.2-9.2h6.4l-0.2,9.2H150.9z"/>
		<path class="st0" d="M163.2,41c0.3,6.6,3.2,10,8.7,10c3.4,0,5.4-1.3,6.8-4.4h6c-1.5,6.2-6.2,9.8-13,9.8c-9.3,0-15.2-6.4-15.2-16.4
			c0-10.4,5.8-17.2,14.7-17.2c8.4,0,13.8,6.5,13.8,16.8V41H163.2z M178.3,36.1c-0.6-5.3-3.1-8.1-7.2-8.1s-6.7,2.7-7.7,8.1H178.3z"/>
		<path class="st0" d="M198.8,23.7c0.3,1.5,0.5,3.2,0.5,4.7v1.4c2.4-4.8,4.9-6.8,8.6-6.8c1.2,0,2.4,0.2,3.5,0.6v6.7
			c-1.5-0.9-2.9-1.4-4.4-1.4c-4.7,0-7.4,4.6-7.4,12.5v14.2h-6.7V34c0-7.3-0.1-7.7-0.4-10.4H198.8z"/>
		<path class="st0" d="M229.4,41.5c0-4.1,0-4.9,0.1-6.2c0.2-2.7,1.2-4.4,4.5-7.8c3.4-3.5,4.1-4.8,4.1-7c0-2.7-1.9-4.5-4.7-4.5
			c-3.1,0-4.6,1.9-4.9,6.3h-7.2c0.1-4.1,0.8-6.4,2.6-8.4c2.2-2.6,5.8-3.9,10.2-3.9c7,0,11.3,3.9,11.3,10.2c0,3.7-1,5.5-5.7,10.4
			c-3.5,3.7-3.9,4.5-3.9,8.8c0,0.7,0,1.2,0.1,2.2H229.4z M236.6,47.6v7.9h-7.9v-7.9H236.6z"/>
		<path class="st0" d="M294.8,10.8c6,0,9.1,0.5,11.5,2.1c2.8,1.7,4.4,4.7,4.4,8.6c0,5.4-2.5,8.7-7.8,10.4
			c6.8,1.6,10.1,5.4,10.1,11.5c0,4.6-2.1,8.4-5.8,10.4c-2.5,1.4-5.6,1.8-11.4,1.8h-13V10.8H294.8z M296.2,29.4
			c5.1,0,7.7-2.4,7.7-7.1c0-4.2-2.2-5.8-7.8-5.8h-6.3v12.9H296.2z M296.6,49.8c4,0,6.2-0.5,7.4-1.6c1.3-1.2,1.9-3,1.9-5.4
			c0-5.4-2.9-7.8-9.2-7.8h-7v14.8H296.6z"/>
		<path class="st0" d="M327.5,47.8c0,2.2,0.5,2.6,2.7,2.6c1.2,0,2.1-0.1,3.4-0.4v5.8c-2.5,0.4-3.4,0.4-5.1,0.4
			c-2.7,0-4.7-0.4-5.8-1.2c-1.3-1-1.8-2.4-1.8-5.4V10.5h6.6V47.8z"/>
		<path class="st0" d="M345.4,23.7v18.8c0,2.8,0.4,4.7,1.1,5.8c1,1.4,2.8,2.2,4.8,2.2c2.6,0,4.7-1.2,5.8-3.2c0.8-1.4,1.2-3.2,1.2-6
			V23.7h6.6v24.9c0,3.9,0.1,4.8,0.8,7h-6.3c-0.4-1.1-0.6-2.2-0.6-3.9c-2.2,3.3-4.7,4.7-8.8,4.7c-4.2,0-7.7-1.8-9.6-4.8
			c-1.1-1.8-1.6-4.5-1.6-8.7v-19H345.4z"/>
		<path class="st0" d="M379.5,41c0.3,6.6,3.2,10,8.7,10c3.4,0,5.4-1.3,6.8-4.4h6c-1.5,6.2-6.2,9.8-13,9.8c-9.3,0-15.2-6.4-15.2-16.4
			c0-10.4,5.8-17.2,14.7-17.2c8.4,0,13.8,6.5,13.8,16.8V41H379.5z M394.6,36.1c-0.6-5.3-3.1-8.1-7.2-8.1s-6.7,2.7-7.7,8.1H394.6z"/>
		<path class="st0" d="M426,32.9c-0.5-3.4-2.3-5-5.8-5c-3.1,0-5.2,1.7-5.2,4c0,1.1,0.5,2.1,1.4,2.7c0.9,0.6,2.2,1.1,6.2,2.2
			c4.9,1.4,7,2.4,8.2,3.9c1.2,1.4,1.9,3.4,1.9,5.5c0,6.3-4.6,10.1-12.3,10.1c-8.4,0-13.1-3.9-13.1-11v-0.2h6.2
			c0.2,2.1,0.5,3,1.4,3.9c1.1,1.3,3.1,2,5.4,2c3.6,0,5.8-1.7,5.8-4.5c0-1.4-0.6-2.2-2.1-3c-1.1-0.5-1.8-0.8-7-2.4
			c-3.5-1.1-5.3-2-6.5-3.3c-1.4-1.4-2.1-3.4-2.1-5.6c0-5.8,4.8-9.7,12-9.7c7.3,0,11.6,3.7,12,10.1H426z"/>
		<path class="st0" d="M460,23.7h8l-13.3,14.6l14.4,17.3h-9l-12.5-16.2v16.2H441v-45h6.6v27L460,23.7z"/>
		<path class="st0" d="M479.1,23.7l7.8,25.3l8.1-25.3h6.8L491.2,54c-2.9,8.2-3.7,9.8-6.4,12c-2.4,1.9-5.7,2.9-9.8,2.9
			c-0.5,0-1.2,0-2.2-0.1v-5.8h1.1c5.5,0,7.4-1.3,9.4-6.7l-11.2-32.8H479.1z"/>
		<path class="st0" d="M514,41.5c0-4.1,0-4.9,0.1-6.2c0.2-2.7,1.2-4.4,4.5-7.8c3.4-3.5,4.1-4.8,4.1-7c0-2.7-1.9-4.5-4.7-4.5
			c-3.1,0-4.6,1.9-4.9,6.3h-7.2c0.1-4.1,0.8-6.4,2.6-8.4c2.2-2.6,5.8-3.9,10.2-3.9c7,0,11.3,3.9,11.3,10.2c0,3.7-1,5.5-5.7,10.4
			c-3.5,3.7-3.9,4.5-3.9,8.8c0,0.7,0,1.2,0.1,2.2H514z M521.2,47.6v7.9h-7.9v-7.9H521.2z"/>
	</g>
	<g>
		<path class="st0" d="M70.9,69.1v118.8H45.3V184h-5.2v9.7H13.3V69.1H70.9z M45.3,95.2h-5.2v16.6h5.2V95.2z M40.1,139.3v18.3h5.2
			v-18.3H40.1z M150.8,136.9h9.7v25.8h-9.7v26.8c0,7.6-1.5,14-8.9,17.5c-6.7,3.2-17,3.6-26,3.6h-7.6c-0.2-7.6-1.1-13.8-4.1-20.9
			c-3.6,1.9-8.9,5.4-13.1,8.1c-3.9-8.6-11-18.8-17.5-25.8l15.4-9.2H75.6v-25.8h44.1v-5.7H73.5v-25.6h28.2v-6.5h-25V73.9h25V60.8
			l32.6,0.5c1.5,0,2.6,1,2.6,2.6c0,1.5-1.8,2.8-4.1,3.7v6.3h26.3v25.2h-26.3v6.5h29.4v25.6h-11.5V136.9z M116.7,182.2
			c2.9,0,3.1-1.8,3.1-4.2v-15.3H99.2c5,6.2,9.7,12.5,13.6,19.3C114.6,182.2,115.4,182.2,116.7,182.2z"/>
		<path class="st0" d="M209.7,103l21.3-2.3c-0.6-8.1-0.8-17.2-1-41.1l33.4,1.8c1.6,0.2,3.6,0.5,3.6,2.3c0,1.6-1.8,2.6-5,4.1
			c0,9.9,0,19.8,0.3,29.7l14.6-1.6c-3.9-8.3-8.6-17-14-24.3l21.6-12.8c7,8.8,13.3,18.3,18.7,28.1c-3.2,1.6-5,2.6-13.3,7.6l19-1.9
			l2.3,29.4l-45.9,5c2.1,13,5,22.4,10.4,34.4c1.3,2.9,5.5,10.4,9.1,10.4c3.4,0,4.7-11.7,5.4-18.7c5,7.3,15.3,18,23.5,21.4
			c-1.1,8.1-4.1,18.7-7.6,26c-3.6,7-8.9,10.4-16.7,10.4c-15.7,0-29.5-15.9-37.2-28.2c-9.7-15.7-14.6-34.1-17.5-52.2l-22.4,2.4
			l-1.9-24.2c-0.6,0.3-1.5,0.6-2.8,1v101.9h-31.5v-67.8c-1.5,1.6-2.9,3.1-4.5,4.5c-9.2-16.2-10.2-17.8-16.9-26
			c8.8-9.4,16.6-20,22.9-31.3c4.5-8.1,12.5-24.2,13.5-33.1l32.3,10.7c1.5,0.5,2.1,1.3,2.1,2.8c0,1.9-1.8,2.6-5.8,3.4
			c-3.7,9.2-8.4,19.5-13.5,28.1l3.7,1V103z"/>
	</g>
	<g>
		<path class="st0" d="M340.7,100.5c0.9,0.3,1.7,0.8,1.7,1.5c0,1.7-1.9,2-3.6,2.2c-4.4,15.5-7.6,32.8-7.6,48.9
			c0,4.6,0.3,8.1,0.9,12.7c1.9-3,4.1-6.2,6-9c2.4,4.7,5.5,8.6,9.1,12.6c-6.2,9.3-10.7,19.8-10.5,31.1l-17,3.2
			c-4.7-16.6-6.9-33.9-6.9-51.3c0-18.9,2.5-39.7,7.6-58L340.7,100.5z M378.6,93.9l22.3,3.8c0.9,0.1,1.7,0.5,1.7,1.4
			c0,1.5-1.8,1.9-2.9,2c-0.6,5.1-1,10.2-1.3,15.2c6.7-1.3,12.3-2.5,18.8-4.7v19.2c-6.3,1.5-12.8,2.9-19.3,4.1c0,8.3,0.6,21.2,2,29.2
			c7.6,2.5,18.4,7.5,24.1,13.1c-2.8,5.1-5,9.8-8.6,17.9c-4.1-3.9-8.3-7.4-13.6-9.7c-0.5,14.3-13.1,18.2-25.3,18.2
			c-8.1,0-15.6-1.9-21.8-7.5c-4.2-3.8-6.2-9-6.2-14.7c0-15.2,15.5-20.4,28.3-20.4h3.2c-0.5-6.3-1.1-16.9-1.4-23.5
			c-4.8,0.4-9.7,0.6-14.6,0.6c-3,0-6.2-0.1-9.4-0.4v-19.9c6,0.8,11.7,1,17,1c2.2,0,4.1,0,6.9-0.1
			C378.5,110.6,378.5,102.2,378.6,93.9z M374.7,176.5c-2.9,0-8.9,0.9-8.9,4.8c0,3.8,5.3,4.7,8.3,4.7c4.8,0,8.5-1.8,8.5-6.3
			c0-0.5,0-0.9-0.1-1.7C379.9,177,377.5,176.5,374.7,176.5z"/>
	</g>
	<g>
		<path class="st0" d="M455.3,119l1.3,78.4h-36.2V64.4h36.2l53.1,78.4l-1.3-78.4h36.2v133.1h-36.2L455.3,119z"/>
		<path class="st0" d="M605.4,96.8c31.8,0,52.7,20,52.7,52.1c0,32.1-20.9,52.1-52.7,52.1c-32,0-52.9-19.8-52.9-52.1
			C552.5,116.8,573.4,96.8,605.4,96.8z M605.4,121.8c-15.7,0-18.7,15.7-18.7,28.2c0,12,4.2,26,18.7,26c14.9,0,18.7-14.8,18.7-27.1
			C624,136.7,620.3,121.8,605.4,121.8z"/>
		<path class="st0" d="M692.2,166.8c0.5,9.6,5.5,12,14.6,12c4.7,0,12.3-0.8,12.3-7.1c0-5.8-3.9-6.7-21.4-10.9
			c-9.1-2.3-20.6-5.8-28.1-11.5c-6.7-5.2-8.4-11.7-8.4-19.8c0-25.5,22.7-32.6,44.1-32.6c12.3,0,28.2,2.9,37.3,12
			c5.2,5.2,7,11.2,7.8,18.3h-33.6c-0.2-3.4-1-8.1-11.8-8.1c-4.4,0-11.2,1-11.2,6.5s7,7,23,10.7c8.6,1.9,20.4,5.8,27.9,11.4
			c6.3,4.5,8.6,12.2,8.6,19.6c0,8.3-3.1,15.7-8.9,21.6c-9.9,9.6-26,12.2-39.3,12.2c-13,0-28.7-2.9-38.1-12.3
			c-6.2-6.3-8.1-13.5-9.1-21.9H692.2z"/>
		<path class="st0" d="M807.7,163c0,7.5,3.1,11.4,10.9,11.4h8v25.5c-7,0.5-18.7,1.1-23.2,1.1c-18,0-29.2-6.2-29.2-25.5v-55H759
			v-20.1h15.1V72.8h33.6v27.6h18.8v20.1h-18.8V163z"/>
		<path class="st0" d="M866.4,119c2.3-7.8,5.2-14.1,12.8-18c5.8-3.1,13-4.2,19.5-4.2h9.4v34.9h-11c-6.3,0-12.3,0.5-18,4.1
			c-7.8,4.7-10.1,15.1-10.1,23.7v38h-32.6v-97h29.5L866.4,119z"/>
	</g>
	<g>
		<path class="st0" d="M946.3,87.2l22.2,5.5c1,0.3,2.2,0.5,2.2,1.7c0,1.3-1.6,1.8-2.6,2c-1,4.5-2.2,9.2-3.3,13.2
			c8-1.4,14.1-3.4,21.7-6.7l2,20.7c-8.4,2.7-16,4.2-29.3,6c-4.1,13-7.1,21.9-12.6,34.4c-6.4,15.1-13,28-21.6,42
			c-6.7-4.1-12.3-6.9-19.5-10.1c15.1-20.2,24.1-39.8,31.9-63.5c-8.4,0.4-16.2,0.7-23.6,0.8l-1.7-21.2c5,0.7,10.1,0.8,15.1,0.8
			c5.2,0,10.5-0.1,15.7-0.5C944.7,103.7,945.9,96,946.3,87.2z M977.9,171.1c-2.2,3.1-3.4,5.1-3.4,7.1c0,3.1,2,4.3,4.7,5
			c4.6,1.3,9.4,1.3,14.1,1.3c9.7,0,19.9-1.4,28.8-5.4c-0.1,2.1-0.3,5.5-0.3,7.6c0,5,0.1,9.7,0.9,14.7c-8,1.6-15.8,2.2-23.9,2.2
			c-14.5,0-42.7-0.5-42.7-21.1c0-5.2,2.2-11.1,4.8-17.3L977.9,171.1z M998.8,131.5c7.1,0,14.1,0.7,21.1,1.7
			c-0.9,7.2-1.3,13.5-1.3,20.7c-6.7-1.6-15.2-2.1-22.2-2.1c-8.1,0-16.6,0.5-24.5,2.1v-19.6C980.7,132.6,989.7,131.5,998.8,131.5z
			 M1014.2,112.7c-4.1,2.4-6.3,3.9-9.9,7.1c-3.8-5.6-7.6-10.5-11.5-14.5l9-6.9C1006.3,102.8,1010.5,107.6,1014.2,112.7z
			 M1026.4,102.9c-2.7,1.8-5.4,3.8-8.8,6.8c-3.1-4.3-8.1-10.2-12.2-13.9l8.9-6.7C1018,92.2,1023.9,98.9,1026.4,102.9z"/>
	</g>
	<g>
		<path class="st0" d="M1071.6,101l-7.5,48h-19.5l-7.5-48V64.4h34.4V101z M1071,164.6v32.8h-33.1v-32.8H1071z"/>
	</g>
</g>
</svg>
