<?xml version="1.0" encoding="utf-8"?>
<!-- Generator: Adobe Illustrator 26.0.1, SVG Export Plug-In . SVG Version: 6.00 Build 0)  -->
<svg version="1.1" id="レイヤー_1" xmlns="http://www.w3.org/2000/svg" xmlns:xlink="http://www.w3.org/1999/xlink" x="0px"
	 y="0px" viewBox="0 0 1192.6 355.1" style="enable-background:new 0 0 1192.6 355.1;" xml:space="preserve">
<style type="text/css">
	.st0{fill:#231815;}
</style>
<g>
	<g>
		<path class="st0" d="M10,47.9h5.3c4.8,0,7.9-1.5,9.4-4.5L34.6,10h26.6L45.6,57c-3.4,7.7-8.7,11.6-15.9,11.6H13.7L10,47.9z
			 M10,136.1h13.8c3.6,0,6-1.7,7.7-5l17.6-34H13.9V76.4h140.1V142c0,9.9-5,14.9-14.9,14.9h-29.7l-3.4-20.7h18.4
			c2.6,0,3.9-1.2,3.9-3.7V97.1H77.2l-23.1,46.7c-3.9,8.7-9.9,13-18.3,13H13.7L10,136.1z M123,56.1L107.5,10h25.7L145,44.7
			c0.9,1.4,2.8,2,5.4,2h6.8v20.7h-17C132.3,67.4,126.5,63.7,123,56.1z"/>
		<path class="st0" d="M165.2,51h9.1V38.5h-7.9V19.9h7.9V10h23.8v9.9h9.6V10h23.8v9.9h6.7v18.6h-6.7V51h8.5v18.9h-74.9V51z
			 M223,156.9h-16.7l-3.4-13.3h6.7c2.6,0,3.9-1.2,3.9-3.9v-2.3H192v19.3h-24.5V75.2h70.3V142C237.8,151.9,232.9,156.9,223,156.9z
			 M192,98.8h21.4v-6.7H192V98.8z M192,121.6h21.4v-7H192V121.6z M207.8,51V38.5h-9.6V51H207.8z M300.4,133.4
			c1.1,1.9,2.9,2.8,5.3,2.8h6.3v20.7h-12.7c-8.8,0-15.5-3.9-19.8-11.5l-0.8-2.2l-0.5,1.2c-3.9,8.2-10.1,12.4-18.6,12.4H244
			l-3.7-20.7h9.1c3.6,0,6-1.5,7.6-4.5l7.7-24.5L249,63.9h24.8l1.9,6l7-26H270l-1.5,6.5c-1.9,7.7-7.4,11.5-15.5,11.5h-10.2l-3.7-20.7
			h2c2.9,0,5-1.5,5.6-4.5l5.4-26.6h25.7l-3.1,13.2H312v20.7h-4.6l-17.5,61.9L300.4,133.4z"/>
		<path class="st0" d="M399.3,31.2h-9.1v13.6h10.7v19.5h-10.7v29.6h-24.5V64.3h-11.8v18.1c0,3.4-1.4,6.7-4,9.8
			c-2.6,3.1-6,4.6-10.5,4.6h-17l-2.9-18.9h5c1.9,0,3.1-0.5,3.9-1.5c0.8-0.9,1.2-2.2,1.2-3.6v-8.5H320V44.8h9.4V31.2h-7.6V11.7h77.4
			V31.2z M320.6,136.1h60.2v-9.9h-55.6v-20.7h55.6v-7.9h25.7v7.9h55.6v20.7h-55.6v9.9h60.2v20.7H320.6V136.1z M365.7,44.8V31.2
			h-11.8v13.6H365.7z M429.4,13.4v56.3h-22V13.4H429.4z M462.6,10v71.7c0,3.6-1.4,6.8-4,10.1c-2.8,3.3-6.3,4.8-10.8,4.8h-26
			L418.6,77h13.6c1.9,0,3.2-0.5,4-1.5c0.8-1.1,1.2-2.3,1.2-3.7V10H462.6z"/>
	</g>
	<g>
		<path class="st0" d="M479,138.3v-75c0-11.2,6-17.2,17.2-17.2h72.6c11.2,0,17.2,6,17.2,17.2v75c0,9.6-5.2,14.8-14.8,14.8h-19.1
			v-16.6h8.9c2.3,0,3.7-1.4,3.7-3.7V68.2c0-3.2-1.7-4.9-4.9-4.9h-54.6c-3.2,0-4.9,1.7-4.9,4.9v62.7c0,3.2,1.7,4.9,4.9,4.9h9.2
			c3.2,0,4.9-1.7,4.9-4.9V72.5h21.3v65.8c0,9.6-5.2,14.8-14.8,14.8h-32.1C484.2,153.1,479,147.9,479,138.3z"/>
	</g>
	<g>
		<path class="st0" d="M744.4,86h-71.7v52.5h8.8c5.1,0,9-1.4,11.6-4.3l-15-20.1h27.2l1.9,2.2l6.2-7.9h-35.6V90.6h63v22.1l-17.5,21.5
			l0.9,0.9c1.5,2.3,3.7,3.4,6.5,3.4h13.6v18.3h-20.7c-6.2,0-11.5-1.5-15.6-4.6c-3.9,2.9-8.5,4.5-13.9,4.5h-47v-3.6h-48.8v-18.3h5.4
			V86h-6V69h146.7V86z M725.1,64.3H602.2V11.7H740v37.8C740,59.4,735,64.3,725.1,64.3z M714.3,26.3h-86.4v5.6h86.4V26.3z
			 M627.9,49.8h82.5c2.6,0,3.9-1.2,3.9-3.9v-1.7h-86.4V49.8z M628.8,92.8h18.3V86h-18.3V92.8z M628.8,113.9h18.3v-6.5h-18.3V113.9z
			 M628.8,134.9h18.3v-6.5h-18.3V134.9z"/>
		<path class="st0" d="M751.4,136.1h12.7c2.9,0,4.8-1.5,5.7-4.5l11.5-36.4h-28.2v-22h63.3V45.1h-32.7l-1.4,5.1
			c-2.3,7.6-7.4,11.3-15.5,11.3h-11.8l-3.7-20.7h3.6c2.9,0,4.8-1.5,5.7-4.5l6.2-22.9h25.7l-3.1,11h26.9V10.6h25.7v13.8H898v20.7
			h-55.9v28.2h57.1v22h-27.7v37.1c0,2.5,1.2,3.7,3.9,3.7h23.8v20.7h-38.5c-9.9,0-14.9-5-14.9-14.9V95.3h-38.5l-15.5,50.1
			c-2.3,7.6-7.4,11.5-15.5,11.5h-21.2L751.4,136.1z"/>
		<path class="st0" d="M948.6,20.7h14.7v20.7h-56V20.7h15.6V10h25.7V20.7z M955.9,136.1h6.8v20.7h-54.8v-20.7h26.6l0.6-8.4h-7.7
			c-8.2,0-13.6-4.2-16.1-12.5l-3.6-65.3h20.7l2.6,54.2c0.6,2,2.3,2.9,5.3,2.9l3.6-57.7h21.4L955.9,136.1z M1023.8,84.4l-2.5,6.5
			h30.6V142c0,9.9-5,14.9-14.9,14.9h-8.7l-3.4-19.2v19h-13.3v-45h-4.3v45h-13.3v-45h-4.3v45h-22.6V90.9h27.5l2.5-6.5h-30.8V63.7
			h87.6v20.7H1023.8z M1039.6,57.8h-71.5V13.4h20.7v23.7h8.4V10h25.7v27.1h3.4c3.6,0,5.3-1.7,5.3-5.3V13.4h20.7v31.7
			C1052.3,53.6,1048.1,57.8,1039.6,57.8z M1025.1,111.7v25.7h0.6c2.5,0,3.7-1.2,3.7-3.9v-21.8H1025.1z"/>
	</g>
	<g>
		<path class="st0" d="M1150.1,70.5v66.9c0,8.3-4.5,12.8-12.8,12.8h-19.8v-17.9h7.8c2,0,3.2-1.1,3.2-3.2v-51c0-3.3-1.8-5.1-5.1-5.1
			h-24.9v64.4c0,8.3-4.5,12.8-12.8,12.8h-19.3v-17.9h7.3c2,0,3.2-1.1,3.2-3.2V73.1H1066V55.2h11.1V41.8h21.5v13.4h36.2
			C1144.8,55.2,1150.1,60.6,1150.1,70.5z M1164.1,57.1h-14V36.7h14V57.1z M1179.6,87h3.1v18.6h-10.8c-8.3,0-12.8-4.5-12.8-12.8V61
			h18.6v24.1C1177.6,86.2,1178.4,87,1179.6,87z M1182.6,36.7v20.4h-14V36.7H1182.6z"/>
	</g>
	<g>
		<g>
			<path class="st0" d="M21.5,321.5v-30.6h26.8v18.6c0,4,2.2,6.2,6.2,6.2h92.4v24.5H40C28,340.1,21.5,333.6,21.5,321.5z
				 M117.7,241.4c0-4-2.2-6.2-6.2-6.2H23.8v-24.5h102.1c12.1,0,18.6,6.5,18.6,18.6v30.6h-26.8V241.4z"/>
			<path class="st0" d="M176.2,321.5v-30.6H203v18.6c0,4,2.2,6.2,6.2,6.2h92.4v24.5H194.8C182.7,340.1,176.2,333.6,176.2,321.5z
				 M272.5,241.4c0-4-2.2-6.2-6.2-6.2h-87.8v-24.5h102.1c12.1,0,18.6,6.5,18.6,18.6v30.6h-26.8V241.4z"/>
		</g>
	</g>
	<g>
		<path class="st0" d="M325.4,246.9h19.7v97.9h-19.7V246.9z M355.6,332.3v-22.2h19.9v11.7c0,3,1.6,4.6,4.6,4.6h41v17.3H367
			C359.6,343.7,355.6,339.7,355.6,332.3z M400.6,270.5c0-3-1.6-4.6-4.6-4.6h-39.9v-17.3h53c7.4,0,11.4,4,11.4,11.4v22.2h-19.9V270.5
			z"/>
	</g>
	<g>
		<g>
			<path class="st0" d="M502.9,235.2v12.4H554c12.1,0,18.6,6.5,18.6,18.6v60.4c0,12.1-6.5,18.6-18.6,18.6h-19.3v-20.4h8.8
				c2.9,0,4.6-1.7,4.6-4.6v-45.8c0-4-2.2-6.2-6.2-6.2h-39v42.3h-24V268h-6.5c-4,0-6.2,2.2-6.2,6.2v43.5c0,4,2.2,6.2,6.2,6.2h25.2
				c3.6,0,5.9-1.7,7.1-5l13.8-37.3h23.7l-17.5,47.8c-3.7,10.2-10.5,14.9-21.2,14.9h-42.4c-12.1,0-18.6-6.5-18.6-18.6v-59.6
				c0-12.1,6.5-18.6,18.6-18.6h17.8v-12.4H441v-20.4h37.9V205h24v9.8h71.2v20.4H502.9z"/>
			<path class="st0" d="M602.7,328.8V298c0-10.1,5.4-15.5,15.5-15.5h33.3c10.1,0,15.5,5.4,15.5,15.5v26.2h25.8c4,0,6.2-2.2,6.2-6.2
				v-42.3c0-4-2.2-6.2-6.2-6.2h-76.9v-21l37.1-18.7h-57.3v-20.1h130v20.1h-34l-39.5,19.7h54.2c12.1,0,18.6,6.5,18.6,18.6v57.7
				c0,12.1-6.5,18.6-18.6,18.6h-88.2C608.2,344.3,602.7,338.9,602.7,328.8z M644.5,324.2v-17.6c0-2.5-1.4-3.9-3.9-3.9h-11.6
				c-2.5,0-3.9,1.4-3.9,3.9v13.8c0,2.5,1.4,3.9,3.9,3.9H644.5z"/>
		</g>
	</g>
</g>
</svg>
